<?xml version="1.0" encoding="UTF-8"?>
<svg width="62px" height="62px" viewBox="0 0 62 62" version="1.1" xmlns="http://www.w3.org/2000/svg" xmlns:xlink="http://www.w3.org/1999/xlink">
    <!-- Generator: Sketch 55.2 (78181) - https://sketchapp.com -->
    <title>Icon/Loader</title>
    <desc>Created with Sketch.</desc>
    <g id="Page-1" stroke="none" stroke-width="1" fill="none" fill-rule="evenodd">
        <g id="Page-Loader" transform="translate(-689.000000, -347.000000)" fill="#000000" fill-rule="nonzero">
            <g id="Icon/Loader" transform="translate(689.000000, 347.000000)">
                <g id="Group">
                    <path d="M24.54425,17.4400833 C24.9110833,18.8635 26.3603333,19.7185833 27.78375,19.35175 C29.2071667,18.9849167 30.06225,17.5356667 29.6954167,16.11225 L26.1175,2.22941667 C25.7506667,0.806 24.3014167,-0.0490833333 22.878,0.31775 C21.4545833,0.684583333 20.5995,2.13383333 20.9663333,3.55725 L24.54425,17.4400833 Z" id="Path" opacity="0.699999988"></path>
                    <path d="M37.45575,44.5599167 C37.0889167,43.1365 35.6396667,42.2814167 34.21625,42.64825 C32.7928333,43.0150833 31.93775,44.4643333 32.3045833,45.88775 L35.8825,59.7705833 C36.2493333,61.194 37.6985833,62.0490833 39.122,61.68225 C40.5454167,61.3154167 41.4005,59.8661667 41.0336667,58.44275 L37.45575,44.5599167 Z" id="Path" opacity="0.699999988"></path>
                    <path d="M33.9889167,19.28975 C35.402,19.6901667 36.8719167,18.8686667 37.2723333,17.4581667 L41.1835,3.66575 C41.5839167,2.25266667 40.7624167,0.78275 39.3519167,0.382333333 C37.9414167,-0.0180833333 36.4689167,0.803416667 36.0685,2.21391667 L32.1573333,16.0063333 C31.7569167,17.4194167 32.5758333,18.8893333 33.9889167,19.28975 Z" id="Path" opacity="0.800000012"></path>
                    <path d="M28.0110833,42.71025 C26.598,42.3098333 25.1280833,43.1313333 24.7276667,44.5418333 L20.8165,58.33425 C20.4160833,59.7473333 21.2375833,61.21725 22.6480833,61.6176667 C24.0611667,62.0180833 25.5310833,61.1965833 25.9315,59.7860833 L29.8426667,45.9936667 C30.2430833,44.5805833 29.4241667,43.1106667 28.0110833,42.71025 Z" id="Path" opacity="0.200000003"></path>
                    <path d="M39.3570833,22.5886667 C40.393,23.62975 42.0773333,23.6323333 43.1184167,22.5938333 L53.2735,12.4723333 C54.3145833,11.4364167 54.3171667,9.75208333 53.2786667,8.711 C52.2401667,7.66991667 50.5584167,7.66733333 49.5173333,8.70583333 L39.36225,18.8273333 C38.32375,19.8658333 38.3211667,21.5501667 39.3570833,22.5886667 Z" id="Path" opacity="0.900000036"></path>
                    <path d="M22.46725,39.556 C21.4313333,38.5149167 19.747,38.5123333 18.7059167,39.5508333 L8.55083333,49.6723333 C7.50975,50.70825 7.50716667,52.3925833 8.54566667,53.4336667 C9.58158333,54.47475 11.2659167,54.4773333 12.307,53.4388333 L22.4620833,43.3173333 C23.5005833,42.2788333 23.5031667,40.5970833 22.46725,39.556 Z" id="Path" opacity="0.300000012"></path>
                    <path d="M19.3181667,34.0948333 C18.93325,32.6765833 17.4710833,31.8395833 16.0554167,32.2270833 L2.21908333,35.9858333 C0.800833333,36.37075 -0.0361666667,37.8329167 0.351333333,39.2485833 C0.73625,40.6668333 2.19841667,41.5038333 3.61408333,41.1163333 L17.4504167,37.3575833 C18.8660833,36.9726667 19.7030833,35.5130833 19.3181667,34.0948333 Z" id="Path" opacity="0.400000006"></path>
                    <path d="M42.6818333,27.9051667 C43.06675,29.3234167 44.5289167,30.1604167 45.9445833,29.7729167 L59.7809167,26.0141667 C61.1991667,25.62925 62.0361667,24.1670833 61.6486667,22.7514167 C61.26375,21.3331667 59.8015833,20.4961667 58.3859167,20.8836667 L44.5495833,24.6424167 C43.1339167,25.0273333 42.2969167,26.4869167 42.6818333,27.9051667 Z" id="Path"></path>
                    <path d="M59.7654167,35.836 L45.8593333,32.3459167 C44.4359167,31.9894167 42.98925,32.85225 42.63275,34.27825 C42.27625,35.7016667 43.1390833,37.1483333 44.5650833,37.5048333 L58.4711667,40.9949167 C59.8945833,41.3514167 61.34125,40.4885833 61.69775,39.0625833 C62.05425,37.6391667 61.1888333,36.1950833 59.7654167,35.836 Z" id="Path" opacity="0.900000036"></path>
                    <path d="M43.369,39.5146667 C42.3408333,38.4658333 40.6565,38.4503333 39.6076667,39.4810833 C38.5588333,40.50925 38.5433333,42.1935833 39.5740833,43.2424167 L49.6180833,53.4724167 C50.64625,54.52125 52.3305833,54.53675 53.3794167,53.506 C54.42825,52.4778333 54.44375,50.7935 53.413,49.7446667 L43.369,39.5146667 Z" id="Path" opacity="0.800000012"></path>
                    <path d="M18.631,22.4853333 C19.6591667,23.5341667 21.3435,23.5496667 22.3923333,22.5189167 C23.4411667,21.4881667 23.4566667,19.8064167 22.4259167,18.7575833 L12.3819167,8.52758333 C11.35375,7.47875 9.66941667,7.46325 8.62058333,8.494 C7.57175,9.52216667 7.55625,11.2065 8.587,12.2553333 L18.631,22.4853333 Z" id="Path" opacity="0.600000024"></path>
                    <path d="M2.23458333,26.164 L16.1406667,29.6540833 C17.5640833,30.0105833 19.01075,29.14775 19.36725,27.72175 C19.72375,26.29575 18.8583333,24.8516667 17.4349167,24.4951667 L3.52883333,21.0050833 C2.10541667,20.646 0.661333333,21.5114167 0.30225,22.9374167 C-0.0568333333,24.3634167 0.811166667,25.8049167 2.23458333,26.164 Z" id="Path" opacity="0.5"></path>
                </g>
            </g>
        </g>
    </g>
</svg>