<svg width="16" height="16" viewBox="0 0 16 16" fill="none" xmlns="http://www.w3.org/2000/svg">
<path d="M0.78103 15.9999C0.626492 15.9999 0.475417 15.9541 0.346914 15.8682C0.218412 15.7824 0.118254 15.6604 0.0591114 15.5176C-3.15495e-05 15.3748 -0.0155032 15.2177 0.0146536 15.0662C0.0448104 14.9146 0.119241 14.7754 0.22853 14.6661L14.666 0.228609C14.8126 0.0820768 15.0113 -0.000244141 15.2185 -0.000244141C15.4258 -0.000244141 15.6245 0.0820768 15.771 0.228609C15.9176 0.375141 15.9999 0.573881 15.9999 0.781109C15.9999 0.988337 15.9176 1.18708 15.771 1.33361L1.33353 15.7711C1.26104 15.8437 1.17492 15.9013 1.0801 15.9406C0.985286 15.9799 0.88365 16 0.78103 15.9999Z" fill="black"/>
<path d="M15.2187 15.9999C15.1161 16 15.0145 15.9799 14.9197 15.9406C14.8248 15.9013 14.7387 15.8437 14.6662 15.7711L0.228731 1.33361C0.0821988 1.18708 -0.00012207 0.988337 -0.00012207 0.781109C-0.00012207 0.573881 0.0821988 0.375141 0.228731 0.228609C0.375263 0.0820768 0.574003 -0.000244141 0.781231 -0.000244141C0.988459 -0.000244141 1.1872 0.0820768 1.33373 0.228609L15.7712 14.6661C15.8805 14.7754 15.955 14.9146 15.9851 15.0662C16.0153 15.2177 15.9998 15.3748 15.9406 15.5176C15.8815 15.6604 15.7813 15.7824 15.6528 15.8682C15.5243 15.9541 15.3733 15.9999 15.2187 15.9999Z" fill="black"/>
</svg>
