<svg width="26" height="26" viewBox="0 0 26 26" fill="none" xmlns="http://www.w3.org/2000/svg">
<path d="M13 0C5.81491 0 0 5.81425 0 13C0 20.185 5.81425 26 13 26C20.1851 26 26 20.1857 26 13C26 5.81491 20.1857 0 13 0ZM13 24.186C6.83201 24.186 1.81396 19.168 1.81396 13C1.81396 6.83196 6.83201 1.81396 13 1.81396C19.168 1.81396 24.186 6.83196 24.186 13C24.186 19.168 19.168 24.186 13 24.186Z" fill="#C9021D"/>
<path d="M12.6153 16.4492C11.8966 16.4492 11.3148 17.0481 11.3148 17.7668C11.3148 18.4684 11.8795 19.0845 12.6153 19.0845C13.3511 19.0845 13.9329 18.4684 13.9329 17.7668C13.9329 17.0481 13.334 16.4492 12.6153 16.4492Z" fill="#C9021D"/>
<path d="M12.8377 6.47302C10.5276 6.47302 9.46667 7.84203 9.46667 8.76605C9.46667 9.43342 10.0314 9.74146 10.4934 9.74146C11.4174 9.74146 11.041 8.42378 12.7864 8.42378C13.642 8.42378 14.3265 8.80028 14.3265 9.58744C14.3265 10.5115 13.3682 11.0419 12.8035 11.521C12.3072 11.9488 11.657 12.6504 11.657 14.1221C11.657 15.0118 11.8966 15.2685 12.5982 15.2685C13.4366 15.2685 13.6077 14.8921 13.6077 14.5669C13.6077 13.6771 13.6248 13.1638 14.566 12.4279C15.028 12.0686 16.4825 10.905 16.4825 9.29646C16.4825 7.68796 15.028 6.47302 12.8377 6.47302Z" fill="#C9021D"/>
</svg>
