<svg width="16" height="11" viewBox="0 0 16 11" fill="none" xmlns="http://www.w3.org/2000/svg">
<path d="M14.3842 10.493H4.8952C4.70742 10.493 4.52734 10.4184 4.39456 10.2857C4.26179 10.1529 4.18719 9.9728 4.18719 9.78503C4.18719 9.59725 4.26179 9.41717 4.39456 9.28439C4.52734 9.15162 4.70742 9.07703 4.8952 9.07703H14.3832C14.571 9.07703 14.7511 9.15162 14.8838 9.28439C15.0166 9.41717 15.0912 9.59725 15.0912 9.78503C15.0912 9.9728 15.0166 10.1529 14.8838 10.2857C14.7511 10.4184 14.571 10.493 14.3832 10.493H14.3842Z" fill="white"/>
<path d="M14.3842 6.04796H4.8952C4.70742 6.04796 4.52734 5.97337 4.39456 5.84059C4.26179 5.70781 4.18719 5.52773 4.18719 5.33996C4.18719 5.15218 4.26179 4.9721 4.39456 4.83933C4.52734 4.70655 4.70742 4.63196 4.8952 4.63196H14.3832C14.571 4.63196 14.7511 4.70655 14.8838 4.83933C15.0166 4.9721 15.0912 5.15218 15.0912 5.33996C15.0912 5.52773 15.0166 5.70781 14.8838 5.84059C14.7511 5.97337 14.571 6.04796 14.3832 6.04796H14.3842Z" fill="white"/>
<path d="M14.3842 1.60399H4.8952C4.70742 1.60399 4.52734 1.5294 4.39456 1.39662C4.26179 1.26384 4.18719 1.08376 4.18719 0.895988C4.18719 0.708215 4.26179 0.528133 4.39456 0.395357C4.52734 0.262581 4.70742 0.187988 4.8952 0.187988H14.3832C14.571 0.187988 14.7511 0.262581 14.8838 0.395357C15.0166 0.528133 15.0912 0.708215 15.0912 0.895988C15.0912 1.08376 15.0166 1.26384 14.8838 1.39662C14.7511 1.5294 14.571 1.60399 14.3832 1.60399H14.3842Z" fill="white"/>
<path d="M1.85322 1.902C2.37844 1.902 2.80422 1.47622 2.80422 0.951C2.80422 0.425777 2.37844 0 1.85322 0C1.328 0 0.902222 0.425777 0.902222 0.951C0.902222 1.47622 1.328 1.902 1.85322 1.902Z" fill="white"/>
<path d="M1.85322 6.29201C2.37844 6.29201 2.80422 5.86624 2.80422 5.34101C2.80422 4.81579 2.37844 4.39001 1.85322 4.39001C1.328 4.39001 0.902222 4.81579 0.902222 5.34101C0.902222 5.86624 1.328 6.29201 1.85322 6.29201Z" fill="white"/>
<path d="M1.85322 10.6811C2.37844 10.6811 2.80422 10.2553 2.80422 9.73005C2.80422 9.20483 2.37844 8.77905 1.85322 8.77905C1.328 8.77905 0.902222 9.20483 0.902222 9.73005C0.902222 10.2553 1.328 10.6811 1.85322 10.6811Z" fill="white"/>
</svg>
