<svg width="29" height="38" viewBox="0 0 29 38" fill="none" xmlns="http://www.w3.org/2000/svg">
<path d="M28.138 12.6176H11.3679L18.8777 5.10775C19.2926 4.69291 19.2926 4.0203 18.8777 3.60539L16.9748 1.70243C16.0068 0.734445 14.4374 0.734445 13.4693 1.70243L11.5127 3.65914L10.5111 2.65752C9.40661 1.553 7.60938 1.55308 6.50486 2.65752L2.5988 6.56358C1.49429 7.66809 1.49429 9.46533 2.5988 10.5698L3.60035 11.5715L1.64371 13.5281C0.675729 14.4961 0.675729 16.0655 1.64371 17.0336L3.54667 18.9365C3.96144 19.3514 4.63412 19.3514 5.04896 18.9365L7.74145 16.244V32.6319C7.74145 35.1743 9.80247 37.2353 12.3448 37.2353H23.5346C26.0769 37.2353 28.138 35.1743 28.138 32.6319V12.6176ZM5.10271 10.069L4.10116 9.06748C3.82505 8.79137 3.82505 8.34204 4.10116 8.06586L8.00722 4.1598C8.2834 3.88362 8.73273 3.88369 9.00877 4.1598L10.0103 5.16142L5.10271 10.069ZM14.2757 31.2863C14.2757 31.873 13.8001 32.3486 13.2134 32.3486C12.6267 32.3486 12.1511 31.873 12.1511 31.2863V18.5666C12.1511 17.9799 12.6267 17.5043 13.2134 17.5043C13.8001 17.5043 14.2757 17.9799 14.2757 18.5666V31.2863ZM19.002 31.2863C19.002 31.873 18.5264 32.3486 17.9397 32.3486C17.353 32.3486 16.8774 31.873 16.8774 31.2863V18.5666C16.8774 17.9799 17.353 17.5043 17.9397 17.5043C18.5264 17.5043 19.002 17.9799 19.002 18.5666V31.2863ZM23.7283 31.2863C23.7283 31.873 23.2527 32.3486 22.666 32.3486C22.0793 32.3486 21.6037 31.873 21.6037 31.2863V18.5666C21.6037 17.9799 22.0793 17.5043 22.666 17.5043C23.2527 17.5043 23.7283 17.9799 23.7283 18.5666V31.2863Z" fill="white"/>
<path d="M19.1228 9.01746C18.4748 9.24336 18.0201 9.822 17.9451 10.4934H28.1377V8.72782C28.1377 7.51553 26.9448 6.66234 25.7992 7.05076L19.1448 9.01038C19.1377 9.01243 19.1299 9.01526 19.1228 9.01746Z" fill="white"/>
</svg>
