<svg width="11" height="7" viewBox="0 0 11 7" fill="none" xmlns="http://www.w3.org/2000/svg">
<path d="M5.25307 6.00307C5.15436 6.00364 5.05652 5.98472 4.96514 5.9474C4.87376 5.91007 4.79065 5.85508 4.72057 5.78557L0.220569 1.28557C0.079341 1.14434 0 0.952795 0 0.753069C0 0.553343 0.079341 0.361797 0.220569 0.220569C0.361797 0.079341 0.553343 0 0.753069 0C0.952795 0 1.14434 0.079341 1.28557 0.220569L5.25307 4.19557L9.22057 0.228069C9.36405 0.105199 9.5486 0.0409943 9.73736 0.0482851C9.92612 0.055576 10.1052 0.133826 10.2387 0.267397C10.3723 0.400968 10.4506 0.580022 10.4579 0.768779C10.4651 0.957536 10.4009 1.14209 10.2781 1.28557L5.77807 5.78557C5.63837 5.92413 5.44982 6.00224 5.25307 6.00307Z" fill="black"/>
</svg>
