<svg xmlns="http://www.w3.org/2000/svg" width="485" height="522" viewBox="0 0 485 522"><defs><style>.a{opacity:0.23;}.b{fill:#dce1e8;}</style></defs><g transform="translate(-826)"><g class="a"><circle class="b" cx="4.5" cy="4.5" r="4.5" transform="translate(826)"/><circle class="b" cx="4.5" cy="4.5" r="4.5" transform="translate(854)"/><circle class="b" cx="4.5" cy="4.5" r="4.5" transform="translate(882)"/><circle class="b" cx="4.5" cy="4.5" r="4.5" transform="translate(910)"/><circle class="b" cx="4.5" cy="4.5" r="4.5" transform="translate(938)"/><circle class="b" cx="4.5" cy="4.5" r="4.5" transform="translate(966)"/><circle class="b" cx="4.5" cy="4.5" r="4.5" transform="translate(994)"/><circle class="b" cx="4.5" cy="4.5" r="4.5" transform="translate(1022)"/><circle class="b" cx="4.5" cy="4.5" r="4.5" transform="translate(1050)"/><circle class="b" cx="4.5" cy="4.5" r="4.5" transform="translate(1078)"/><circle class="b" cx="4.5" cy="4.5" r="4.5" transform="translate(1106)"/><circle class="b" cx="4.5" cy="4.5" r="4.5" transform="translate(1134)"/><circle class="b" cx="4.5" cy="4.5" r="4.5" transform="translate(1162)"/><circle class="b" cx="4.5" cy="4.5" r="4.5" transform="translate(1190)"/><circle class="b" cx="4.5" cy="4.5" r="4.5" transform="translate(1218)"/><circle class="b" cx="4.5" cy="4.5" r="4.5" transform="translate(1246)"/><circle class="b" cx="4.5" cy="4.5" r="4.5" transform="translate(1274)"/><circle class="b" cx="4.5" cy="4.5" r="4.5" transform="translate(1302)"/><circle class="b" cx="4.5" cy="4.5" r="4.5" transform="translate(826 27)"/><circle class="b" cx="4.5" cy="4.5" r="4.5" transform="translate(854 27)"/><circle class="b" cx="4.5" cy="4.5" r="4.5" transform="translate(882 27)"/><circle class="b" cx="4.5" cy="4.5" r="4.5" transform="translate(910 27)"/><circle class="b" cx="4.5" cy="4.5" r="4.5" transform="translate(938 27)"/><circle class="b" cx="4.5" cy="4.5" r="4.5" transform="translate(966 27)"/><circle class="b" cx="4.5" cy="4.5" r="4.5" transform="translate(994 27)"/><circle class="b" cx="4.5" cy="4.5" r="4.5" transform="translate(1022 27)"/><circle class="b" cx="4.5" cy="4.5" r="4.5" transform="translate(1050 27)"/><circle class="b" cx="4.5" cy="4.5" r="4.5" transform="translate(1078 27)"/><circle class="b" cx="4.5" cy="4.5" r="4.5" transform="translate(1106 27)"/><circle class="b" cx="4.5" cy="4.5" r="4.5" transform="translate(1134 27)"/><circle class="b" cx="4.5" cy="4.5" r="4.5" transform="translate(1162 27)"/><circle class="b" cx="4.5" cy="4.5" r="4.5" transform="translate(1190 27)"/><circle class="b" cx="4.5" cy="4.5" r="4.5" transform="translate(1218 27)"/><circle class="b" cx="4.5" cy="4.5" r="4.5" transform="translate(1246 27)"/><circle class="b" cx="4.5" cy="4.5" r="4.5" transform="translate(1274 27)"/><circle class="b" cx="4.5" cy="4.5" r="4.5" transform="translate(1302 27)"/><circle class="b" cx="4.5" cy="4.5" r="4.5" transform="translate(826 54)"/><circle class="b" cx="4.5" cy="4.5" r="4.5" transform="translate(854 54)"/><circle class="b" cx="4.5" cy="4.5" r="4.5" transform="translate(882 54)"/><circle class="b" cx="4.5" cy="4.5" r="4.5" transform="translate(910 54)"/><circle class="b" cx="4.5" cy="4.5" r="4.5" transform="translate(938 54)"/><circle class="b" cx="4.5" cy="4.5" r="4.5" transform="translate(966 54)"/><circle class="b" cx="4.5" cy="4.5" r="4.5" transform="translate(994 54)"/><circle class="b" cx="4.5" cy="4.5" r="4.5" transform="translate(1022 54)"/><circle class="b" cx="4.5" cy="4.5" r="4.5" transform="translate(1050 54)"/><circle class="b" cx="4.5" cy="4.5" r="4.5" transform="translate(1078 54)"/><circle class="b" cx="4.5" cy="4.5" r="4.5" transform="translate(1106 54)"/><circle class="b" cx="4.5" cy="4.5" r="4.5" transform="translate(1134 54)"/><circle class="b" cx="4.5" cy="4.5" r="4.5" transform="translate(1162 54)"/><circle class="b" cx="4.5" cy="4.5" r="4.5" transform="translate(1190 54)"/><circle class="b" cx="4.5" cy="4.5" r="4.5" transform="translate(1218 54)"/><circle class="b" cx="4.5" cy="4.5" r="4.5" transform="translate(1246 54)"/><circle class="b" cx="4.5" cy="4.5" r="4.5" transform="translate(1274 54)"/><circle class="b" cx="4.5" cy="4.5" r="4.5" transform="translate(1302 54)"/><circle class="b" cx="4.5" cy="4.5" r="4.5" transform="translate(826 81)"/><circle class="b" cx="4.5" cy="4.5" r="4.5" transform="translate(854 81)"/><circle class="b" cx="4.5" cy="4.5" r="4.5" transform="translate(882 81)"/><circle class="b" cx="4.5" cy="4.5" r="4.5" transform="translate(910 81)"/><circle class="b" cx="4.5" cy="4.5" r="4.5" transform="translate(938 81)"/><circle class="b" cx="4.5" cy="4.5" r="4.5" transform="translate(966 81)"/><circle class="b" cx="4.5" cy="4.5" r="4.5" transform="translate(994 81)"/><circle class="b" cx="4.5" cy="4.5" r="4.5" transform="translate(1022 81)"/><circle class="b" cx="4.5" cy="4.5" r="4.5" transform="translate(1050 81)"/><circle class="b" cx="4.5" cy="4.5" r="4.5" transform="translate(1078 81)"/><circle class="b" cx="4.5" cy="4.5" r="4.5" transform="translate(1106 81)"/><circle class="b" cx="4.5" cy="4.5" r="4.5" transform="translate(1134 81)"/><circle class="b" cx="4.5" cy="4.5" r="4.5" transform="translate(1162 81)"/><circle class="b" cx="4.5" cy="4.5" r="4.5" transform="translate(1190 81)"/><circle class="b" cx="4.5" cy="4.5" r="4.5" transform="translate(1218 81)"/><circle class="b" cx="4.5" cy="4.5" r="4.5" transform="translate(1246 81)"/><circle class="b" cx="4.5" cy="4.5" r="4.5" transform="translate(1274 81)"/><circle class="b" cx="4.5" cy="4.5" r="4.5" transform="translate(1302 81)"/><circle class="b" cx="4.5" cy="4.5" r="4.5" transform="translate(826 108)"/><circle class="b" cx="4.5" cy="4.5" r="4.5" transform="translate(854 108)"/><circle class="b" cx="4.5" cy="4.5" r="4.5" transform="translate(882 108)"/><circle class="b" cx="4.5" cy="4.5" r="4.5" transform="translate(910 108)"/><circle class="b" cx="4.5" cy="4.5" r="4.5" transform="translate(938 108)"/><circle class="b" cx="4.5" cy="4.5" r="4.5" transform="translate(966 108)"/><circle class="b" cx="4.5" cy="4.5" r="4.5" transform="translate(994 108)"/><circle class="b" cx="4.5" cy="4.5" r="4.5" transform="translate(1022 108)"/><circle class="b" cx="4.5" cy="4.5" r="4.5" transform="translate(1050 108)"/><circle class="b" cx="4.5" cy="4.5" r="4.5" transform="translate(1078 108)"/><circle class="b" cx="4.5" cy="4.5" r="4.5" transform="translate(1106 108)"/><circle class="b" cx="4.5" cy="4.5" r="4.5" transform="translate(1134 108)"/><circle class="b" cx="4.5" cy="4.5" r="4.5" transform="translate(1162 108)"/><circle class="b" cx="4.5" cy="4.5" r="4.5" transform="translate(1190 108)"/><circle class="b" cx="4.5" cy="4.5" r="4.5" transform="translate(1218 108)"/><circle class="b" cx="4.5" cy="4.5" r="4.5" transform="translate(1246 108)"/><circle class="b" cx="4.5" cy="4.5" r="4.5" transform="translate(1274 108)"/><circle class="b" cx="4.5" cy="4.5" r="4.5" transform="translate(1302 108)"/><circle class="b" cx="4.5" cy="4.5" r="4.5" transform="translate(826 135)"/><circle class="b" cx="4.5" cy="4.5" r="4.5" transform="translate(854 135)"/><circle class="b" cx="4.5" cy="4.5" r="4.5" transform="translate(882 135)"/><circle class="b" cx="4.5" cy="4.5" r="4.5" transform="translate(910 135)"/><circle class="b" cx="4.5" cy="4.5" r="4.5" transform="translate(938 135)"/><circle class="b" cx="4.5" cy="4.5" r="4.5" transform="translate(966 135)"/><circle class="b" cx="4.5" cy="4.5" r="4.5" transform="translate(994 135)"/><circle class="b" cx="4.5" cy="4.5" r="4.5" transform="translate(1022 135)"/><circle class="b" cx="4.5" cy="4.5" r="4.5" transform="translate(1050 135)"/><circle class="b" cx="4.5" cy="4.5" r="4.5" transform="translate(1078 135)"/><circle class="b" cx="4.5" cy="4.5" r="4.5" transform="translate(1106 135)"/><circle class="b" cx="4.5" cy="4.5" r="4.5" transform="translate(1134 135)"/><circle class="b" cx="4.5" cy="4.5" r="4.5" transform="translate(1162 135)"/><circle class="b" cx="4.5" cy="4.5" r="4.5" transform="translate(1190 135)"/><circle class="b" cx="4.5" cy="4.5" r="4.5" transform="translate(1218 135)"/><circle class="b" cx="4.5" cy="4.5" r="4.5" transform="translate(1246 135)"/><circle class="b" cx="4.5" cy="4.5" r="4.5" transform="translate(1274 135)"/><circle class="b" cx="4.5" cy="4.5" r="4.5" transform="translate(1302 135)"/><circle class="b" cx="4.5" cy="4.5" r="4.5" transform="translate(826 162)"/><circle class="b" cx="4.5" cy="4.5" r="4.5" transform="translate(854 162)"/><circle class="b" cx="4.5" cy="4.5" r="4.5" transform="translate(882 162)"/><circle class="b" cx="4.5" cy="4.5" r="4.5" transform="translate(910 162)"/><circle class="b" cx="4.5" cy="4.5" r="4.5" transform="translate(938 162)"/><circle class="b" cx="4.5" cy="4.5" r="4.5" transform="translate(966 162)"/><circle class="b" cx="4.5" cy="4.5" r="4.5" transform="translate(994 162)"/><circle class="b" cx="4.5" cy="4.5" r="4.5" transform="translate(1022 162)"/><circle class="b" cx="4.5" cy="4.5" r="4.5" transform="translate(1050 162)"/><circle class="b" cx="4.5" cy="4.5" r="4.5" transform="translate(1078 162)"/><circle class="b" cx="4.5" cy="4.5" r="4.5" transform="translate(1106 162)"/><circle class="b" cx="4.5" cy="4.5" r="4.5" transform="translate(1134 162)"/><circle class="b" cx="4.5" cy="4.5" r="4.5" transform="translate(1162 162)"/><circle class="b" cx="4.5" cy="4.5" r="4.5" transform="translate(1190 162)"/><circle class="b" cx="4.5" cy="4.5" r="4.5" transform="translate(1218 162)"/><circle class="b" cx="4.5" cy="4.5" r="4.5" transform="translate(1246 162)"/><circle class="b" cx="4.5" cy="4.5" r="4.5" transform="translate(1274 162)"/><circle class="b" cx="4.5" cy="4.5" r="4.5" transform="translate(1302 162)"/><circle class="b" cx="4.5" cy="4.5" r="4.5" transform="translate(826 189)"/><circle class="b" cx="4.5" cy="4.5" r="4.5" transform="translate(854 189)"/><circle class="b" cx="4.5" cy="4.5" r="4.5" transform="translate(882 189)"/><circle class="b" cx="4.5" cy="4.5" r="4.5" transform="translate(910 189)"/><circle class="b" cx="4.5" cy="4.5" r="4.5" transform="translate(938 189)"/><circle class="b" cx="4.5" cy="4.5" r="4.5" transform="translate(966 189)"/><circle class="b" cx="4.5" cy="4.5" r="4.5" transform="translate(994 189)"/><circle class="b" cx="4.5" cy="4.5" r="4.5" transform="translate(1022 189)"/><circle class="b" cx="4.5" cy="4.5" r="4.5" transform="translate(1050 189)"/><circle class="b" cx="4.5" cy="4.5" r="4.5" transform="translate(1078 189)"/><circle class="b" cx="4.5" cy="4.5" r="4.5" transform="translate(1106 189)"/><circle class="b" cx="4.5" cy="4.5" r="4.5" transform="translate(1134 189)"/><circle class="b" cx="4.5" cy="4.5" r="4.5" transform="translate(1162 189)"/><circle class="b" cx="4.5" cy="4.5" r="4.5" transform="translate(1190 189)"/><circle class="b" cx="4.5" cy="4.5" r="4.5" transform="translate(1218 189)"/><circle class="b" cx="4.5" cy="4.5" r="4.5" transform="translate(1246 189)"/><circle class="b" cx="4.5" cy="4.5" r="4.5" transform="translate(1274 189)"/><circle class="b" cx="4.5" cy="4.5" r="4.5" transform="translate(1302 189)"/><circle class="b" cx="4.5" cy="4.5" r="4.5" transform="translate(826 216)"/><circle class="b" cx="4.5" cy="4.5" r="4.5" transform="translate(854 216)"/><circle class="b" cx="4.5" cy="4.5" r="4.5" transform="translate(882 216)"/><circle class="b" cx="4.5" cy="4.5" r="4.5" transform="translate(910 216)"/><circle class="b" cx="4.5" cy="4.5" r="4.5" transform="translate(938 216)"/><circle class="b" cx="4.5" cy="4.5" r="4.5" transform="translate(966 216)"/><circle class="b" cx="4.5" cy="4.5" r="4.5" transform="translate(994 216)"/><circle class="b" cx="4.5" cy="4.5" r="4.5" transform="translate(1022 216)"/><circle class="b" cx="4.5" cy="4.5" r="4.5" transform="translate(1050 216)"/><circle class="b" cx="4.5" cy="4.5" r="4.5" transform="translate(1078 216)"/><circle class="b" cx="4.5" cy="4.5" r="4.5" transform="translate(1106 216)"/><circle class="b" cx="4.5" cy="4.5" r="4.5" transform="translate(1134 216)"/><circle class="b" cx="4.5" cy="4.5" r="4.5" transform="translate(1162 216)"/><circle class="b" cx="4.5" cy="4.5" r="4.5" transform="translate(1190 216)"/><circle class="b" cx="4.5" cy="4.5" r="4.5" transform="translate(1218 216)"/><circle class="b" cx="4.5" cy="4.5" r="4.5" transform="translate(1246 216)"/><circle class="b" cx="4.5" cy="4.5" r="4.5" transform="translate(1274 216)"/><circle class="b" cx="4.5" cy="4.5" r="4.5" transform="translate(1302 216)"/><circle class="b" cx="4.5" cy="4.5" r="4.5" transform="translate(826 243)"/><circle class="b" cx="4.5" cy="4.5" r="4.5" transform="translate(854 243)"/><circle class="b" cx="4.5" cy="4.5" r="4.5" transform="translate(882 243)"/><circle class="b" cx="4.5" cy="4.5" r="4.5" transform="translate(910 243)"/><circle class="b" cx="4.5" cy="4.5" r="4.5" transform="translate(938 243)"/><circle class="b" cx="4.5" cy="4.5" r="4.5" transform="translate(966 243)"/><circle class="b" cx="4.5" cy="4.5" r="4.5" transform="translate(994 243)"/><circle class="b" cx="4.5" cy="4.5" r="4.5" transform="translate(1022 243)"/><circle class="b" cx="4.5" cy="4.5" r="4.5" transform="translate(1050 243)"/><circle class="b" cx="4.5" cy="4.5" r="4.5" transform="translate(1078 243)"/><circle class="b" cx="4.5" cy="4.5" r="4.5" transform="translate(1106 243)"/><circle class="b" cx="4.5" cy="4.5" r="4.5" transform="translate(1134 243)"/><circle class="b" cx="4.5" cy="4.5" r="4.5" transform="translate(1162 243)"/><circle class="b" cx="4.5" cy="4.5" r="4.5" transform="translate(1190 243)"/><circle class="b" cx="4.5" cy="4.5" r="4.5" transform="translate(1218 243)"/><circle class="b" cx="4.5" cy="4.5" r="4.5" transform="translate(1246 243)"/><circle class="b" cx="4.5" cy="4.5" r="4.5" transform="translate(1274 243)"/><circle class="b" cx="4.5" cy="4.5" r="4.5" transform="translate(1302 243)"/><circle class="b" cx="4.5" cy="4.5" r="4.5" transform="translate(826 270)"/><circle class="b" cx="4.5" cy="4.5" r="4.5" transform="translate(854 270)"/><circle class="b" cx="4.5" cy="4.5" r="4.5" transform="translate(882 270)"/><circle class="b" cx="4.5" cy="4.5" r="4.5" transform="translate(910 270)"/><circle class="b" cx="4.5" cy="4.5" r="4.5" transform="translate(938 270)"/><circle class="b" cx="4.5" cy="4.5" r="4.5" transform="translate(966 270)"/><circle class="b" cx="4.5" cy="4.5" r="4.5" transform="translate(994 270)"/><circle class="b" cx="4.5" cy="4.5" r="4.5" transform="translate(1022 270)"/><circle class="b" cx="4.5" cy="4.5" r="4.5" transform="translate(1050 270)"/><circle class="b" cx="4.5" cy="4.5" r="4.5" transform="translate(1078 270)"/><circle class="b" cx="4.5" cy="4.5" r="4.5" transform="translate(1106 270)"/><circle class="b" cx="4.5" cy="4.5" r="4.5" transform="translate(1134 270)"/><circle class="b" cx="4.5" cy="4.5" r="4.5" transform="translate(1162 270)"/><circle class="b" cx="4.5" cy="4.5" r="4.5" transform="translate(1190 270)"/><circle class="b" cx="4.5" cy="4.5" r="4.5" transform="translate(1218 270)"/><circle class="b" cx="4.5" cy="4.5" r="4.5" transform="translate(1246 270)"/><circle class="b" cx="4.5" cy="4.5" r="4.5" transform="translate(1274 270)"/><circle class="b" cx="4.5" cy="4.5" r="4.5" transform="translate(1302 270)"/><circle class="b" cx="4.5" cy="4.5" r="4.5" transform="translate(826 297)"/><circle class="b" cx="4.5" cy="4.5" r="4.5" transform="translate(854 297)"/><circle class="b" cx="4.5" cy="4.5" r="4.5" transform="translate(882 297)"/><circle class="b" cx="4.5" cy="4.5" r="4.5" transform="translate(910 297)"/><circle class="b" cx="4.5" cy="4.5" r="4.5" transform="translate(938 297)"/><circle class="b" cx="4.5" cy="4.5" r="4.5" transform="translate(966 297)"/><circle class="b" cx="4.5" cy="4.5" r="4.5" transform="translate(994 297)"/><circle class="b" cx="4.5" cy="4.5" r="4.5" transform="translate(1022 297)"/><circle class="b" cx="4.5" cy="4.5" r="4.5" transform="translate(1050 297)"/><circle class="b" cx="4.5" cy="4.5" r="4.5" transform="translate(1078 297)"/><circle class="b" cx="4.5" cy="4.5" r="4.5" transform="translate(1106 297)"/><circle class="b" cx="4.5" cy="4.5" r="4.5" transform="translate(1134 297)"/><circle class="b" cx="4.5" cy="4.5" r="4.5" transform="translate(1162 297)"/><circle class="b" cx="4.5" cy="4.5" r="4.5" transform="translate(1190 297)"/><circle class="b" cx="4.5" cy="4.5" r="4.5" transform="translate(1218 297)"/><circle class="b" cx="4.5" cy="4.5" r="4.5" transform="translate(1246 297)"/><circle class="b" cx="4.5" cy="4.5" r="4.5" transform="translate(1274 297)"/><circle class="b" cx="4.5" cy="4.5" r="4.5" transform="translate(1302 297)"/><circle class="b" cx="4.5" cy="4.5" r="4.5" transform="translate(826 324)"/><circle class="b" cx="4.5" cy="4.5" r="4.5" transform="translate(854 324)"/><circle class="b" cx="4.5" cy="4.5" r="4.5" transform="translate(882 324)"/><circle class="b" cx="4.5" cy="4.5" r="4.5" transform="translate(910 324)"/><circle class="b" cx="4.5" cy="4.5" r="4.5" transform="translate(938 324)"/><circle class="b" cx="4.5" cy="4.5" r="4.5" transform="translate(966 324)"/><circle class="b" cx="4.5" cy="4.5" r="4.5" transform="translate(994 324)"/><circle class="b" cx="4.5" cy="4.5" r="4.5" transform="translate(1022 324)"/><circle class="b" cx="4.5" cy="4.5" r="4.5" transform="translate(1050 324)"/><circle class="b" cx="4.5" cy="4.5" r="4.5" transform="translate(1078 324)"/><circle class="b" cx="4.5" cy="4.5" r="4.5" transform="translate(1106 324)"/><circle class="b" cx="4.5" cy="4.5" r="4.5" transform="translate(1134 324)"/><circle class="b" cx="4.5" cy="4.5" r="4.5" transform="translate(1162 324)"/><circle class="b" cx="4.5" cy="4.5" r="4.5" transform="translate(1190 324)"/><circle class="b" cx="4.5" cy="4.5" r="4.5" transform="translate(1218 324)"/><circle class="b" cx="4.5" cy="4.5" r="4.5" transform="translate(1246 324)"/><circle class="b" cx="4.5" cy="4.5" r="4.5" transform="translate(1274 324)"/><circle class="b" cx="4.5" cy="4.5" r="4.5" transform="translate(1302 324)"/><circle class="b" cx="4.5" cy="4.5" r="4.5" transform="translate(826 351)"/><circle class="b" cx="4.5" cy="4.5" r="4.5" transform="translate(854 351)"/><circle class="b" cx="4.5" cy="4.5" r="4.5" transform="translate(882 351)"/><circle class="b" cx="4.5" cy="4.5" r="4.5" transform="translate(910 351)"/><circle class="b" cx="4.5" cy="4.5" r="4.5" transform="translate(938 351)"/><circle class="b" cx="4.5" cy="4.5" r="4.5" transform="translate(966 351)"/><circle class="b" cx="4.5" cy="4.5" r="4.5" transform="translate(994 351)"/><circle class="b" cx="4.5" cy="4.5" r="4.5" transform="translate(1022 351)"/><circle class="b" cx="4.5" cy="4.5" r="4.5" transform="translate(1050 351)"/><circle class="b" cx="4.5" cy="4.5" r="4.5" transform="translate(1078 351)"/><circle class="b" cx="4.5" cy="4.5" r="4.5" transform="translate(1106 351)"/><circle class="b" cx="4.5" cy="4.5" r="4.5" transform="translate(1134 351)"/><circle class="b" cx="4.5" cy="4.5" r="4.5" transform="translate(1162 351)"/><circle class="b" cx="4.5" cy="4.5" r="4.5" transform="translate(1190 351)"/><circle class="b" cx="4.5" cy="4.5" r="4.5" transform="translate(1218 351)"/><circle class="b" cx="4.5" cy="4.5" r="4.5" transform="translate(1246 351)"/><circle class="b" cx="4.5" cy="4.5" r="4.5" transform="translate(1274 351)"/><circle class="b" cx="4.5" cy="4.5" r="4.5" transform="translate(1302 351)"/><circle class="b" cx="4.5" cy="4.5" r="4.5" transform="translate(826 378)"/><circle class="b" cx="4.5" cy="4.5" r="4.5" transform="translate(854 378)"/><circle class="b" cx="4.5" cy="4.5" r="4.5" transform="translate(882 378)"/><circle class="b" cx="4.5" cy="4.5" r="4.5" transform="translate(910 378)"/><circle class="b" cx="4.5" cy="4.5" r="4.5" transform="translate(938 378)"/><circle class="b" cx="4.5" cy="4.5" r="4.5" transform="translate(966 378)"/><circle class="b" cx="4.5" cy="4.5" r="4.5" transform="translate(994 378)"/><circle class="b" cx="4.5" cy="4.5" r="4.5" transform="translate(1022 378)"/><circle class="b" cx="4.5" cy="4.5" r="4.5" transform="translate(1050 378)"/><circle class="b" cx="4.5" cy="4.5" r="4.5" transform="translate(1078 378)"/><circle class="b" cx="4.5" cy="4.5" r="4.5" transform="translate(1106 378)"/><circle class="b" cx="4.5" cy="4.5" r="4.5" transform="translate(1134 378)"/><circle class="b" cx="4.5" cy="4.5" r="4.5" transform="translate(1162 378)"/><circle class="b" cx="4.5" cy="4.5" r="4.5" transform="translate(1190 378)"/><circle class="b" cx="4.5" cy="4.5" r="4.5" transform="translate(1218 378)"/><circle class="b" cx="4.5" cy="4.5" r="4.5" transform="translate(1246 378)"/><circle class="b" cx="4.5" cy="4.5" r="4.5" transform="translate(1274 378)"/><circle class="b" cx="4.5" cy="4.5" r="4.5" transform="translate(1302 378)"/><circle class="b" cx="4.5" cy="4.5" r="4.5" transform="translate(826 405)"/><circle class="b" cx="4.5" cy="4.5" r="4.5" transform="translate(854 405)"/><circle class="b" cx="4.5" cy="4.5" r="4.5" transform="translate(882 405)"/><circle class="b" cx="4.5" cy="4.5" r="4.5" transform="translate(910 405)"/><circle class="b" cx="4.5" cy="4.5" r="4.5" transform="translate(938 405)"/><circle class="b" cx="4.5" cy="4.5" r="4.5" transform="translate(966 405)"/><circle class="b" cx="4.5" cy="4.5" r="4.5" transform="translate(994 405)"/><circle class="b" cx="4.5" cy="4.5" r="4.5" transform="translate(1022 405)"/><circle class="b" cx="4.5" cy="4.5" r="4.5" transform="translate(1050 405)"/><circle class="b" cx="4.5" cy="4.5" r="4.5" transform="translate(1078 405)"/><circle class="b" cx="4.5" cy="4.5" r="4.5" transform="translate(1106 405)"/><circle class="b" cx="4.5" cy="4.5" r="4.5" transform="translate(1134 405)"/><circle class="b" cx="4.5" cy="4.5" r="4.5" transform="translate(1162 405)"/><circle class="b" cx="4.5" cy="4.5" r="4.5" transform="translate(1190 405)"/><circle class="b" cx="4.5" cy="4.5" r="4.5" transform="translate(1218 405)"/><circle class="b" cx="4.5" cy="4.5" r="4.5" transform="translate(1246 405)"/><circle class="b" cx="4.5" cy="4.5" r="4.5" transform="translate(1274 405)"/><circle class="b" cx="4.5" cy="4.5" r="4.5" transform="translate(1302 405)"/><circle class="b" cx="4.5" cy="4.5" r="4.5" transform="translate(826 432)"/><circle class="b" cx="4.5" cy="4.5" r="4.5" transform="translate(854 432)"/><circle class="b" cx="4.5" cy="4.5" r="4.5" transform="translate(882 432)"/><circle class="b" cx="4.5" cy="4.5" r="4.5" transform="translate(910 432)"/><circle class="b" cx="4.5" cy="4.5" r="4.5" transform="translate(938 432)"/><circle class="b" cx="4.5" cy="4.5" r="4.5" transform="translate(966 432)"/><circle class="b" cx="4.5" cy="4.5" r="4.5" transform="translate(994 432)"/><circle class="b" cx="4.5" cy="4.5" r="4.5" transform="translate(1022 432)"/><circle class="b" cx="4.5" cy="4.5" r="4.5" transform="translate(1050 432)"/><circle class="b" cx="4.5" cy="4.5" r="4.5" transform="translate(1078 432)"/><circle class="b" cx="4.5" cy="4.5" r="4.5" transform="translate(1106 432)"/><circle class="b" cx="4.5" cy="4.5" r="4.5" transform="translate(1134 432)"/><circle class="b" cx="4.5" cy="4.5" r="4.5" transform="translate(1162 432)"/><circle class="b" cx="4.5" cy="4.5" r="4.5" transform="translate(1190 432)"/><circle class="b" cx="4.5" cy="4.5" r="4.5" transform="translate(1218 432)"/><circle class="b" cx="4.5" cy="4.5" r="4.5" transform="translate(1246 432)"/><circle class="b" cx="4.5" cy="4.5" r="4.5" transform="translate(1274 432)"/><circle class="b" cx="4.5" cy="4.5" r="4.5" transform="translate(1302 432)"/><circle class="b" cx="4.5" cy="4.5" r="4.5" transform="translate(826 459)"/><circle class="b" cx="4.5" cy="4.5" r="4.5" transform="translate(854 459)"/><circle class="b" cx="4.5" cy="4.5" r="4.5" transform="translate(882 459)"/><circle class="b" cx="4.5" cy="4.5" r="4.5" transform="translate(910 459)"/><circle class="b" cx="4.5" cy="4.5" r="4.5" transform="translate(938 459)"/><circle class="b" cx="4.5" cy="4.5" r="4.5" transform="translate(966 459)"/><circle class="b" cx="4.5" cy="4.5" r="4.5" transform="translate(994 459)"/><circle class="b" cx="4.5" cy="4.5" r="4.5" transform="translate(1022 459)"/><circle class="b" cx="4.5" cy="4.5" r="4.5" transform="translate(1050 459)"/><circle class="b" cx="4.5" cy="4.5" r="4.5" transform="translate(1078 459)"/><circle class="b" cx="4.5" cy="4.5" r="4.5" transform="translate(1106 459)"/><circle class="b" cx="4.5" cy="4.5" r="4.5" transform="translate(1134 459)"/><circle class="b" cx="4.5" cy="4.5" r="4.5" transform="translate(1162 459)"/><circle class="b" cx="4.5" cy="4.5" r="4.5" transform="translate(1190 459)"/><circle class="b" cx="4.5" cy="4.5" r="4.5" transform="translate(1218 459)"/><circle class="b" cx="4.5" cy="4.5" r="4.5" transform="translate(1246 459)"/><circle class="b" cx="4.5" cy="4.5" r="4.5" transform="translate(1274 459)"/><circle class="b" cx="4.5" cy="4.5" r="4.5" transform="translate(1302 459)"/><circle class="b" cx="4.5" cy="4.5" r="4.5" transform="translate(826 486)"/><circle class="b" cx="4.5" cy="4.5" r="4.5" transform="translate(854 486)"/><circle class="b" cx="4.5" cy="4.5" r="4.5" transform="translate(882 486)"/><circle class="b" cx="4.5" cy="4.5" r="4.5" transform="translate(910 486)"/><circle class="b" cx="4.5" cy="4.5" r="4.5" transform="translate(938 486)"/><circle class="b" cx="4.5" cy="4.5" r="4.5" transform="translate(966 486)"/><circle class="b" cx="4.5" cy="4.5" r="4.5" transform="translate(994 486)"/><circle class="b" cx="4.5" cy="4.5" r="4.5" transform="translate(1022 486)"/><circle class="b" cx="4.5" cy="4.5" r="4.5" transform="translate(1050 486)"/><circle class="b" cx="4.5" cy="4.5" r="4.5" transform="translate(1078 486)"/><circle class="b" cx="4.5" cy="4.5" r="4.5" transform="translate(1106 486)"/><circle class="b" cx="4.5" cy="4.5" r="4.5" transform="translate(1134 486)"/><circle class="b" cx="4.5" cy="4.5" r="4.5" transform="translate(1162 486)"/><circle class="b" cx="4.5" cy="4.5" r="4.5" transform="translate(1190 486)"/><circle class="b" cx="4.5" cy="4.5" r="4.5" transform="translate(1218 486)"/><circle class="b" cx="4.5" cy="4.5" r="4.5" transform="translate(1246 486)"/><circle class="b" cx="4.5" cy="4.5" r="4.5" transform="translate(1274 486)"/><circle class="b" cx="4.5" cy="4.5" r="4.5" transform="translate(1302 486)"/><circle class="b" cx="4.5" cy="4.5" r="4.5" transform="translate(826 513)"/><circle class="b" cx="4.5" cy="4.5" r="4.5" transform="translate(854 513)"/><circle class="b" cx="4.5" cy="4.5" r="4.5" transform="translate(882 513)"/><circle class="b" cx="4.5" cy="4.5" r="4.5" transform="translate(910 513)"/><circle class="b" cx="4.5" cy="4.5" r="4.5" transform="translate(938 513)"/><circle class="b" cx="4.5" cy="4.5" r="4.5" transform="translate(966 513)"/><circle class="b" cx="4.5" cy="4.5" r="4.5" transform="translate(994 513)"/><circle class="b" cx="4.5" cy="4.5" r="4.5" transform="translate(1022 513)"/><circle class="b" cx="4.5" cy="4.5" r="4.5" transform="translate(1050 513)"/><circle class="b" cx="4.5" cy="4.5" r="4.5" transform="translate(1078 513)"/><circle class="b" cx="4.5" cy="4.5" r="4.5" transform="translate(1106 513)"/><circle class="b" cx="4.5" cy="4.5" r="4.5" transform="translate(1134 513)"/><circle class="b" cx="4.5" cy="4.5" r="4.5" transform="translate(1162 513)"/><circle class="b" cx="4.5" cy="4.5" r="4.5" transform="translate(1190 513)"/><circle class="b" cx="4.5" cy="4.5" r="4.5" transform="translate(1218 513)"/><circle class="b" cx="4.5" cy="4.5" r="4.5" transform="translate(1246 513)"/><circle class="b" cx="4.5" cy="4.5" r="4.5" transform="translate(1274 513)"/><circle class="b" cx="4.5" cy="4.5" r="4.5" transform="translate(1302 513)"/></g></g></svg>