<svg xmlns="http://www.w3.org/2000/svg" width="569" height="468" viewBox="0 0 569 468"><defs><style>.a{fill:#eff3f8;}</style></defs><g transform="translate(343 -467)"><circle class="a" cx="4.5" cy="4.5" r="4.5" transform="translate(-7 467)"/><circle class="a" cx="4.5" cy="4.5" r="4.5" transform="translate(21 467)"/><circle class="a" cx="4.5" cy="4.5" r="4.5" transform="translate(49 467)"/><circle class="a" cx="4.5" cy="4.5" r="4.5" transform="translate(77 467)"/><circle class="a" cx="4.5" cy="4.5" r="4.5" transform="translate(105 467)"/><circle class="a" cx="4.5" cy="4.5" r="4.5" transform="translate(133 467)"/><circle class="a" cx="4.5" cy="4.5" r="4.5" transform="translate(161 467)"/><circle class="a" cx="4.5" cy="4.5" r="4.5" transform="translate(189 467)"/><circle class="a" cx="4.5" cy="4.5" r="4.5" transform="translate(217 467)"/><circle class="a" cx="4.5" cy="4.5" r="4.5" transform="translate(-7 494)"/><circle class="a" cx="4.5" cy="4.5" r="4.5" transform="translate(21 494)"/><circle class="a" cx="4.5" cy="4.5" r="4.5" transform="translate(49 494)"/><circle class="a" cx="4.5" cy="4.5" r="4.5" transform="translate(77 494)"/><circle class="a" cx="4.5" cy="4.5" r="4.5" transform="translate(105 494)"/><circle class="a" cx="4.5" cy="4.5" r="4.5" transform="translate(133 494)"/><circle class="a" cx="4.5" cy="4.5" r="4.5" transform="translate(161 494)"/><circle class="a" cx="4.5" cy="4.5" r="4.5" transform="translate(189 494)"/><circle class="a" cx="4.5" cy="4.5" r="4.5" transform="translate(217 494)"/><circle class="a" cx="4.5" cy="4.5" r="4.5" transform="translate(-7 521)"/><circle class="a" cx="4.5" cy="4.5" r="4.5" transform="translate(21 521)"/><circle class="a" cx="4.5" cy="4.5" r="4.5" transform="translate(49 521)"/><circle class="a" cx="4.5" cy="4.5" r="4.5" transform="translate(77 521)"/><circle class="a" cx="4.5" cy="4.5" r="4.5" transform="translate(105 521)"/><circle class="a" cx="4.5" cy="4.5" r="4.5" transform="translate(133 521)"/><circle class="a" cx="4.5" cy="4.5" r="4.5" transform="translate(161 521)"/><circle class="a" cx="4.5" cy="4.5" r="4.5" transform="translate(189 521)"/><circle class="a" cx="4.5" cy="4.5" r="4.5" transform="translate(217 521)"/><circle class="a" cx="4.5" cy="4.5" r="4.5" transform="translate(-7 548)"/><circle class="a" cx="4.5" cy="4.5" r="4.5" transform="translate(21 548)"/><circle class="a" cx="4.5" cy="4.5" r="4.5" transform="translate(49 548)"/><circle class="a" cx="4.5" cy="4.5" r="4.5" transform="translate(77 548)"/><circle class="a" cx="4.5" cy="4.5" r="4.5" transform="translate(105 548)"/><circle class="a" cx="4.5" cy="4.5" r="4.5" transform="translate(133 548)"/><circle class="a" cx="4.5" cy="4.5" r="4.5" transform="translate(161 548)"/><circle class="a" cx="4.5" cy="4.5" r="4.5" transform="translate(189 548)"/><circle class="a" cx="4.5" cy="4.5" r="4.5" transform="translate(217 548)"/><circle class="a" cx="4.5" cy="4.5" r="4.5" transform="translate(-7 575)"/><circle class="a" cx="4.5" cy="4.5" r="4.5" transform="translate(21 575)"/><circle class="a" cx="4.5" cy="4.5" r="4.5" transform="translate(49 575)"/><circle class="a" cx="4.5" cy="4.5" r="4.5" transform="translate(77 575)"/><circle class="a" cx="4.5" cy="4.5" r="4.5" transform="translate(105 575)"/><circle class="a" cx="4.5" cy="4.5" r="4.5" transform="translate(133 575)"/><circle class="a" cx="4.5" cy="4.5" r="4.5" transform="translate(161 575)"/><circle class="a" cx="4.5" cy="4.5" r="4.5" transform="translate(189 575)"/><circle class="a" cx="4.5" cy="4.5" r="4.5" transform="translate(217 575)"/><circle class="a" cx="4.5" cy="4.5" r="4.5" transform="translate(-7 602)"/><circle class="a" cx="4.5" cy="4.5" r="4.5" transform="translate(21 602)"/><circle class="a" cx="4.5" cy="4.5" r="4.5" transform="translate(49 602)"/><circle class="a" cx="4.5" cy="4.5" r="4.5" transform="translate(77 602)"/><circle class="a" cx="4.5" cy="4.5" r="4.5" transform="translate(105 602)"/><circle class="a" cx="4.5" cy="4.5" r="4.5" transform="translate(133 602)"/><circle class="a" cx="4.5" cy="4.5" r="4.5" transform="translate(161 602)"/><circle class="a" cx="4.5" cy="4.5" r="4.5" transform="translate(189 602)"/><circle class="a" cx="4.5" cy="4.5" r="4.5" transform="translate(217 602)"/><circle class="a" cx="4.5" cy="4.5" r="4.5" transform="translate(-7 629)"/><circle class="a" cx="4.5" cy="4.5" r="4.5" transform="translate(21 629)"/><circle class="a" cx="4.5" cy="4.5" r="4.5" transform="translate(49 629)"/><circle class="a" cx="4.5" cy="4.5" r="4.5" transform="translate(77 629)"/><circle class="a" cx="4.5" cy="4.5" r="4.5" transform="translate(105 629)"/><circle class="a" cx="4.5" cy="4.5" r="4.5" transform="translate(133 629)"/><circle class="a" cx="4.5" cy="4.5" r="4.5" transform="translate(161 629)"/><circle class="a" cx="4.5" cy="4.5" r="4.5" transform="translate(189 629)"/><circle class="a" cx="4.5" cy="4.5" r="4.5" transform="translate(217 629)"/><circle class="a" cx="4.5" cy="4.5" r="4.5" transform="translate(-7 656)"/><circle class="a" cx="4.5" cy="4.5" r="4.5" transform="translate(21 656)"/><circle class="a" cx="4.5" cy="4.5" r="4.5" transform="translate(49 656)"/><circle class="a" cx="4.5" cy="4.5" r="4.5" transform="translate(77 656)"/><circle class="a" cx="4.5" cy="4.5" r="4.5" transform="translate(105 656)"/><circle class="a" cx="4.5" cy="4.5" r="4.5" transform="translate(133 656)"/><circle class="a" cx="4.5" cy="4.5" r="4.5" transform="translate(161 656)"/><circle class="a" cx="4.5" cy="4.5" r="4.5" transform="translate(189 656)"/><circle class="a" cx="4.5" cy="4.5" r="4.5" transform="translate(217 656)"/><circle class="a" cx="4.5" cy="4.5" r="4.5" transform="translate(-7 683)"/><circle class="a" cx="4.5" cy="4.5" r="4.5" transform="translate(21 683)"/><circle class="a" cx="4.5" cy="4.5" r="4.5" transform="translate(49 683)"/><circle class="a" cx="4.5" cy="4.5" r="4.5" transform="translate(77 683)"/><circle class="a" cx="4.5" cy="4.5" r="4.5" transform="translate(105 683)"/><circle class="a" cx="4.5" cy="4.5" r="4.5" transform="translate(133 683)"/><circle class="a" cx="4.5" cy="4.5" r="4.5" transform="translate(161 683)"/><circle class="a" cx="4.5" cy="4.5" r="4.5" transform="translate(189 683)"/><circle class="a" cx="4.5" cy="4.5" r="4.5" transform="translate(217 683)"/><circle class="a" cx="4.5" cy="4.5" r="4.5" transform="translate(-7 710)"/><circle class="a" cx="4.5" cy="4.5" r="4.5" transform="translate(21 710)"/><circle class="a" cx="4.5" cy="4.5" r="4.5" transform="translate(49 710)"/><circle class="a" cx="4.5" cy="4.5" r="4.5" transform="translate(77 710)"/><circle class="a" cx="4.5" cy="4.5" r="4.5" transform="translate(105 710)"/><circle class="a" cx="4.5" cy="4.5" r="4.5" transform="translate(133 710)"/><circle class="a" cx="4.5" cy="4.5" r="4.5" transform="translate(161 710)"/><circle class="a" cx="4.5" cy="4.5" r="4.5" transform="translate(189 710)"/><circle class="a" cx="4.5" cy="4.5" r="4.5" transform="translate(217 710)"/><circle class="a" cx="4.5" cy="4.5" r="4.5" transform="translate(-7 737)"/><circle class="a" cx="4.5" cy="4.5" r="4.5" transform="translate(21 737)"/><circle class="a" cx="4.5" cy="4.5" r="4.5" transform="translate(49 737)"/><circle class="a" cx="4.5" cy="4.5" r="4.5" transform="translate(77 737)"/><circle class="a" cx="4.5" cy="4.5" r="4.5" transform="translate(105 737)"/><circle class="a" cx="4.5" cy="4.5" r="4.5" transform="translate(133 737)"/><circle class="a" cx="4.5" cy="4.5" r="4.5" transform="translate(161 737)"/><circle class="a" cx="4.5" cy="4.5" r="4.5" transform="translate(189 737)"/><circle class="a" cx="4.5" cy="4.5" r="4.5" transform="translate(217 737)"/><circle class="a" cx="4.5" cy="4.5" r="4.5" transform="translate(-7 764)"/><circle class="a" cx="4.5" cy="4.5" r="4.5" transform="translate(21 764)"/><circle class="a" cx="4.5" cy="4.5" r="4.5" transform="translate(49 764)"/><circle class="a" cx="4.5" cy="4.5" r="4.5" transform="translate(77 764)"/><circle class="a" cx="4.5" cy="4.5" r="4.5" transform="translate(105 764)"/><circle class="a" cx="4.5" cy="4.5" r="4.5" transform="translate(133 764)"/><circle class="a" cx="4.5" cy="4.5" r="4.5" transform="translate(161 764)"/><circle class="a" cx="4.5" cy="4.5" r="4.5" transform="translate(189 764)"/><circle class="a" cx="4.5" cy="4.5" r="4.5" transform="translate(217 764)"/><circle class="a" cx="4.5" cy="4.5" r="4.5" transform="translate(-343 467)"/><circle class="a" cx="4.5" cy="4.5" r="4.5" transform="translate(-315 467)"/><circle class="a" cx="4.5" cy="4.5" r="4.5" transform="translate(-287 467)"/><circle class="a" cx="4.5" cy="4.5" r="4.5" transform="translate(-259 467)"/><circle class="a" cx="4.5" cy="4.5" r="4.5" transform="translate(-231 467)"/><circle class="a" cx="4.5" cy="4.5" r="4.5" transform="translate(-203 467)"/><circle class="a" cx="4.5" cy="4.5" r="4.5" transform="translate(-175 467)"/><circle class="a" cx="4.5" cy="4.5" r="4.5" transform="translate(-147 467)"/><circle class="a" cx="4.5" cy="4.5" r="4.5" transform="translate(-119 467)"/><circle class="a" cx="4.5" cy="4.5" r="4.5" transform="translate(-91 467)"/><circle class="a" cx="4.5" cy="4.5" r="4.5" transform="translate(-63 467)"/><circle class="a" cx="4.5" cy="4.5" r="4.5" transform="translate(-35 467)"/><circle class="a" cx="4.5" cy="4.5" r="4.5" transform="translate(-343 494)"/><circle class="a" cx="4.5" cy="4.5" r="4.5" transform="translate(-315 494)"/><circle class="a" cx="4.5" cy="4.5" r="4.5" transform="translate(-287 494)"/><circle class="a" cx="4.5" cy="4.5" r="4.5" transform="translate(-259 494)"/><circle class="a" cx="4.5" cy="4.5" r="4.5" transform="translate(-231 494)"/><circle class="a" cx="4.5" cy="4.5" r="4.5" transform="translate(-203 494)"/><circle class="a" cx="4.5" cy="4.5" r="4.5" transform="translate(-175 494)"/><circle class="a" cx="4.5" cy="4.5" r="4.5" transform="translate(-147 494)"/><circle class="a" cx="4.5" cy="4.5" r="4.5" transform="translate(-119 494)"/><circle class="a" cx="4.5" cy="4.5" r="4.5" transform="translate(-91 494)"/><circle class="a" cx="4.5" cy="4.5" r="4.5" transform="translate(-63 494)"/><circle class="a" cx="4.5" cy="4.5" r="4.5" transform="translate(-35 494)"/><circle class="a" cx="4.5" cy="4.5" r="4.5" transform="translate(-343 521)"/><circle class="a" cx="4.5" cy="4.5" r="4.5" transform="translate(-315 521)"/><circle class="a" cx="4.5" cy="4.5" r="4.5" transform="translate(-287 521)"/><circle class="a" cx="4.5" cy="4.5" r="4.5" transform="translate(-259 521)"/><circle class="a" cx="4.5" cy="4.5" r="4.5" transform="translate(-231 521)"/><circle class="a" cx="4.5" cy="4.5" r="4.5" transform="translate(-203 521)"/><circle class="a" cx="4.5" cy="4.5" r="4.5" transform="translate(-175 521)"/><circle class="a" cx="4.5" cy="4.5" r="4.5" transform="translate(-147 521)"/><circle class="a" cx="4.5" cy="4.5" r="4.5" transform="translate(-119 521)"/><circle class="a" cx="4.5" cy="4.5" r="4.5" transform="translate(-91 521)"/><circle class="a" cx="4.5" cy="4.5" r="4.5" transform="translate(-63 521)"/><circle class="a" cx="4.5" cy="4.5" r="4.5" transform="translate(-35 521)"/><circle class="a" cx="4.5" cy="4.5" r="4.5" transform="translate(-343 548)"/><circle class="a" cx="4.5" cy="4.5" r="4.5" transform="translate(-315 548)"/><circle class="a" cx="4.5" cy="4.5" r="4.5" transform="translate(-287 548)"/><circle class="a" cx="4.5" cy="4.5" r="4.5" transform="translate(-259 548)"/><circle class="a" cx="4.5" cy="4.5" r="4.5" transform="translate(-231 548)"/><circle class="a" cx="4.5" cy="4.5" r="4.5" transform="translate(-203 548)"/><circle class="a" cx="4.5" cy="4.5" r="4.5" transform="translate(-175 548)"/><circle class="a" cx="4.5" cy="4.5" r="4.5" transform="translate(-147 548)"/><circle class="a" cx="4.5" cy="4.5" r="4.5" transform="translate(-119 548)"/><circle class="a" cx="4.5" cy="4.5" r="4.5" transform="translate(-91 548)"/><circle class="a" cx="4.5" cy="4.5" r="4.5" transform="translate(-63 548)"/><circle class="a" cx="4.5" cy="4.5" r="4.5" transform="translate(-35 548)"/><circle class="a" cx="4.5" cy="4.5" r="4.5" transform="translate(-343 575)"/><circle class="a" cx="4.5" cy="4.5" r="4.5" transform="translate(-315 575)"/><circle class="a" cx="4.5" cy="4.5" r="4.5" transform="translate(-287 575)"/><circle class="a" cx="4.5" cy="4.5" r="4.5" transform="translate(-259 575)"/><circle class="a" cx="4.5" cy="4.5" r="4.5" transform="translate(-231 575)"/><circle class="a" cx="4.5" cy="4.5" r="4.5" transform="translate(-203 575)"/><circle class="a" cx="4.5" cy="4.5" r="4.5" transform="translate(-175 575)"/><circle class="a" cx="4.5" cy="4.5" r="4.5" transform="translate(-147 575)"/><circle class="a" cx="4.5" cy="4.5" r="4.5" transform="translate(-119 575)"/><circle class="a" cx="4.5" cy="4.5" r="4.5" transform="translate(-91 575)"/><circle class="a" cx="4.5" cy="4.5" r="4.5" transform="translate(-63 575)"/><circle class="a" cx="4.5" cy="4.5" r="4.5" transform="translate(-35 575)"/><circle class="a" cx="4.5" cy="4.5" r="4.5" transform="translate(-343 602)"/><circle class="a" cx="4.5" cy="4.5" r="4.5" transform="translate(-315 602)"/><circle class="a" cx="4.5" cy="4.5" r="4.5" transform="translate(-287 602)"/><circle class="a" cx="4.5" cy="4.5" r="4.5" transform="translate(-259 602)"/><circle class="a" cx="4.5" cy="4.5" r="4.5" transform="translate(-231 602)"/><circle class="a" cx="4.5" cy="4.5" r="4.5" transform="translate(-203 602)"/><circle class="a" cx="4.5" cy="4.5" r="4.5" transform="translate(-175 602)"/><circle class="a" cx="4.5" cy="4.5" r="4.5" transform="translate(-147 602)"/><circle class="a" cx="4.5" cy="4.5" r="4.5" transform="translate(-119 602)"/><circle class="a" cx="4.5" cy="4.5" r="4.5" transform="translate(-91 602)"/><circle class="a" cx="4.5" cy="4.5" r="4.5" transform="translate(-63 602)"/><circle class="a" cx="4.5" cy="4.5" r="4.5" transform="translate(-35 602)"/><circle class="a" cx="4.5" cy="4.5" r="4.5" transform="translate(-343 629)"/><circle class="a" cx="4.5" cy="4.5" r="4.5" transform="translate(-315 629)"/><circle class="a" cx="4.5" cy="4.5" r="4.5" transform="translate(-287 629)"/><circle class="a" cx="4.5" cy="4.5" r="4.5" transform="translate(-259 629)"/><circle class="a" cx="4.5" cy="4.5" r="4.5" transform="translate(-231 629)"/><circle class="a" cx="4.5" cy="4.5" r="4.5" transform="translate(-203 629)"/><circle class="a" cx="4.5" cy="4.5" r="4.5" transform="translate(-175 629)"/><circle class="a" cx="4.5" cy="4.5" r="4.5" transform="translate(-147 629)"/><circle class="a" cx="4.5" cy="4.5" r="4.5" transform="translate(-119 629)"/><circle class="a" cx="4.5" cy="4.5" r="4.5" transform="translate(-91 629)"/><circle class="a" cx="4.5" cy="4.5" r="4.5" transform="translate(-63 629)"/><circle class="a" cx="4.5" cy="4.5" r="4.5" transform="translate(-35 629)"/><circle class="a" cx="4.5" cy="4.5" r="4.5" transform="translate(-343 656)"/><circle class="a" cx="4.5" cy="4.5" r="4.5" transform="translate(-315 656)"/><circle class="a" cx="4.5" cy="4.5" r="4.5" transform="translate(-287 656)"/><circle class="a" cx="4.5" cy="4.5" r="4.5" transform="translate(-259 656)"/><circle class="a" cx="4.5" cy="4.5" r="4.5" transform="translate(-231 656)"/><circle class="a" cx="4.5" cy="4.5" r="4.5" transform="translate(-203 656)"/><circle class="a" cx="4.5" cy="4.5" r="4.5" transform="translate(-175 656)"/><circle class="a" cx="4.5" cy="4.5" r="4.5" transform="translate(-147 656)"/><circle class="a" cx="4.5" cy="4.5" r="4.5" transform="translate(-119 656)"/><circle class="a" cx="4.5" cy="4.5" r="4.5" transform="translate(-91 656)"/><circle class="a" cx="4.5" cy="4.5" r="4.5" transform="translate(-63 656)"/><circle class="a" cx="4.5" cy="4.5" r="4.5" transform="translate(-35 656)"/><circle class="a" cx="4.5" cy="4.5" r="4.5" transform="translate(-343 683)"/><circle class="a" cx="4.5" cy="4.5" r="4.5" transform="translate(-315 683)"/><circle class="a" cx="4.5" cy="4.5" r="4.5" transform="translate(-287 683)"/><circle class="a" cx="4.5" cy="4.5" r="4.5" transform="translate(-259 683)"/><circle class="a" cx="4.5" cy="4.5" r="4.5" transform="translate(-231 683)"/><circle class="a" cx="4.5" cy="4.5" r="4.5" transform="translate(-203 683)"/><circle class="a" cx="4.5" cy="4.5" r="4.5" transform="translate(-175 683)"/><circle class="a" cx="4.5" cy="4.5" r="4.5" transform="translate(-147 683)"/><circle class="a" cx="4.5" cy="4.5" r="4.5" transform="translate(-119 683)"/><circle class="a" cx="4.5" cy="4.5" r="4.5" transform="translate(-91 683)"/><circle class="a" cx="4.5" cy="4.5" r="4.5" transform="translate(-63 683)"/><circle class="a" cx="4.5" cy="4.5" r="4.5" transform="translate(-35 683)"/><circle class="a" cx="4.5" cy="4.5" r="4.5" transform="translate(-343 710)"/><circle class="a" cx="4.5" cy="4.5" r="4.5" transform="translate(-315 710)"/><circle class="a" cx="4.5" cy="4.5" r="4.5" transform="translate(-287 710)"/><circle class="a" cx="4.5" cy="4.5" r="4.5" transform="translate(-259 710)"/><circle class="a" cx="4.5" cy="4.5" r="4.5" transform="translate(-231 710)"/><circle class="a" cx="4.5" cy="4.5" r="4.5" transform="translate(-203 710)"/><circle class="a" cx="4.5" cy="4.5" r="4.5" transform="translate(-175 710)"/><circle class="a" cx="4.5" cy="4.5" r="4.5" transform="translate(-147 710)"/><circle class="a" cx="4.5" cy="4.5" r="4.5" transform="translate(-119 710)"/><circle class="a" cx="4.5" cy="4.5" r="4.5" transform="translate(-91 710)"/><circle class="a" cx="4.5" cy="4.5" r="4.5" transform="translate(-63 710)"/><circle class="a" cx="4.5" cy="4.5" r="4.5" transform="translate(-35 710)"/><circle class="a" cx="4.5" cy="4.5" r="4.5" transform="translate(-343 737)"/><circle class="a" cx="4.5" cy="4.5" r="4.5" transform="translate(-315 737)"/><circle class="a" cx="4.5" cy="4.5" r="4.5" transform="translate(-287 737)"/><circle class="a" cx="4.5" cy="4.5" r="4.5" transform="translate(-259 737)"/><circle class="a" cx="4.5" cy="4.5" r="4.5" transform="translate(-231 737)"/><circle class="a" cx="4.5" cy="4.5" r="4.5" transform="translate(-203 737)"/><circle class="a" cx="4.5" cy="4.5" r="4.5" transform="translate(-175 737)"/><circle class="a" cx="4.5" cy="4.5" r="4.5" transform="translate(-147 737)"/><circle class="a" cx="4.5" cy="4.5" r="4.5" transform="translate(-119 737)"/><circle class="a" cx="4.5" cy="4.5" r="4.5" transform="translate(-91 737)"/><circle class="a" cx="4.5" cy="4.5" r="4.5" transform="translate(-63 737)"/><circle class="a" cx="4.5" cy="4.5" r="4.5" transform="translate(-35 737)"/><circle class="a" cx="4.5" cy="4.5" r="4.5" transform="translate(-343 764)"/><circle class="a" cx="4.5" cy="4.5" r="4.5" transform="translate(-315 764)"/><circle class="a" cx="4.5" cy="4.5" r="4.5" transform="translate(-287 764)"/><circle class="a" cx="4.5" cy="4.5" r="4.5" transform="translate(-259 764)"/><circle class="a" cx="4.5" cy="4.5" r="4.5" transform="translate(-231 764)"/><circle class="a" cx="4.5" cy="4.5" r="4.5" transform="translate(-203 764)"/><circle class="a" cx="4.5" cy="4.5" r="4.5" transform="translate(-175 764)"/><circle class="a" cx="4.5" cy="4.5" r="4.5" transform="translate(-147 764)"/><circle class="a" cx="4.5" cy="4.5" r="4.5" transform="translate(-119 764)"/><circle class="a" cx="4.5" cy="4.5" r="4.5" transform="translate(-91 764)"/><circle class="a" cx="4.5" cy="4.5" r="4.5" transform="translate(-63 764)"/><circle class="a" cx="4.5" cy="4.5" r="4.5" transform="translate(-35 764)"/><circle class="a" cx="4.5" cy="4.5" r="4.5" transform="translate(-343 791)"/><circle class="a" cx="4.5" cy="4.5" r="4.5" transform="translate(-315 791)"/><circle class="a" cx="4.5" cy="4.5" r="4.5" transform="translate(-287 791)"/><circle class="a" cx="4.5" cy="4.5" r="4.5" transform="translate(-259 791)"/><circle class="a" cx="4.5" cy="4.5" r="4.5" transform="translate(-231 791)"/><circle class="a" cx="4.5" cy="4.5" r="4.5" transform="translate(-203 791)"/><circle class="a" cx="4.5" cy="4.5" r="4.5" transform="translate(-175 791)"/><circle class="a" cx="4.5" cy="4.5" r="4.5" transform="translate(-147 791)"/><circle class="a" cx="4.5" cy="4.5" r="4.5" transform="translate(-119 791)"/><circle class="a" cx="4.5" cy="4.5" r="4.5" transform="translate(-91 791)"/><circle class="a" cx="4.5" cy="4.5" r="4.5" transform="translate(-63 791)"/><circle class="a" cx="4.5" cy="4.5" r="4.5" transform="translate(-35 791)"/><circle class="a" cx="4.5" cy="4.5" r="4.5" transform="translate(-7 791)"/><circle class="a" cx="4.5" cy="4.5" r="4.5" transform="translate(21 791)"/><circle class="a" cx="4.5" cy="4.5" r="4.5" transform="translate(49 791)"/><circle class="a" cx="4.5" cy="4.5" r="4.5" transform="translate(77 791)"/><circle class="a" cx="4.5" cy="4.5" r="4.5" transform="translate(105 791)"/><circle class="a" cx="4.5" cy="4.5" r="4.5" transform="translate(133 791)"/><circle class="a" cx="4.5" cy="4.5" r="4.5" transform="translate(161 791)"/><circle class="a" cx="4.5" cy="4.5" r="4.5" transform="translate(189 791)"/><circle class="a" cx="4.5" cy="4.5" r="4.5" transform="translate(217 791)"/><circle class="a" cx="4.5" cy="4.5" r="4.5" transform="translate(-343 818)"/><circle class="a" cx="4.5" cy="4.5" r="4.5" transform="translate(-315 818)"/><circle class="a" cx="4.5" cy="4.5" r="4.5" transform="translate(-287 818)"/><circle class="a" cx="4.5" cy="4.5" r="4.5" transform="translate(-259 818)"/><circle class="a" cx="4.5" cy="4.5" r="4.5" transform="translate(-231 818)"/><circle class="a" cx="4.5" cy="4.5" r="4.5" transform="translate(-203 818)"/><circle class="a" cx="4.5" cy="4.5" r="4.5" transform="translate(-175 818)"/><circle class="a" cx="4.5" cy="4.5" r="4.5" transform="translate(-147 818)"/><circle class="a" cx="4.5" cy="4.5" r="4.5" transform="translate(-119 818)"/><circle class="a" cx="4.5" cy="4.5" r="4.5" transform="translate(-91 818)"/><circle class="a" cx="4.5" cy="4.5" r="4.5" transform="translate(-63 818)"/><circle class="a" cx="4.5" cy="4.5" r="4.5" transform="translate(-35 818)"/><circle class="a" cx="4.5" cy="4.5" r="4.5" transform="translate(-7 818)"/><circle class="a" cx="4.5" cy="4.5" r="4.5" transform="translate(21 818)"/><circle class="a" cx="4.5" cy="4.5" r="4.5" transform="translate(49 818)"/><circle class="a" cx="4.5" cy="4.5" r="4.5" transform="translate(77 818)"/><circle class="a" cx="4.5" cy="4.5" r="4.5" transform="translate(105 818)"/><circle class="a" cx="4.5" cy="4.5" r="4.5" transform="translate(133 818)"/><circle class="a" cx="4.5" cy="4.5" r="4.5" transform="translate(161 818)"/><circle class="a" cx="4.5" cy="4.5" r="4.5" transform="translate(189 818)"/><circle class="a" cx="4.5" cy="4.5" r="4.5" transform="translate(217 818)"/><circle class="a" cx="4.5" cy="4.5" r="4.5" transform="translate(-343 845)"/><circle class="a" cx="4.5" cy="4.5" r="4.5" transform="translate(-315 845)"/><circle class="a" cx="4.5" cy="4.5" r="4.5" transform="translate(-287 845)"/><circle class="a" cx="4.5" cy="4.5" r="4.5" transform="translate(-259 845)"/><circle class="a" cx="4.5" cy="4.5" r="4.5" transform="translate(-231 845)"/><circle class="a" cx="4.5" cy="4.5" r="4.5" transform="translate(-203 845)"/><circle class="a" cx="4.5" cy="4.5" r="4.5" transform="translate(-175 845)"/><circle class="a" cx="4.5" cy="4.5" r="4.5" transform="translate(-147 845)"/><circle class="a" cx="4.5" cy="4.5" r="4.5" transform="translate(-119 845)"/><circle class="a" cx="4.5" cy="4.5" r="4.5" transform="translate(-91 845)"/><circle class="a" cx="4.5" cy="4.5" r="4.5" transform="translate(-63 845)"/><circle class="a" cx="4.5" cy="4.5" r="4.5" transform="translate(-35 845)"/><circle class="a" cx="4.5" cy="4.5" r="4.5" transform="translate(-7 845)"/><circle class="a" cx="4.5" cy="4.5" r="4.5" transform="translate(21 845)"/><circle class="a" cx="4.5" cy="4.5" r="4.5" transform="translate(49 845)"/><circle class="a" cx="4.5" cy="4.5" r="4.5" transform="translate(77 845)"/><circle class="a" cx="4.5" cy="4.5" r="4.5" transform="translate(105 845)"/><circle class="a" cx="4.5" cy="4.5" r="4.5" transform="translate(133 845)"/><circle class="a" cx="4.5" cy="4.5" r="4.5" transform="translate(161 845)"/><circle class="a" cx="4.5" cy="4.5" r="4.5" transform="translate(189 845)"/><circle class="a" cx="4.5" cy="4.5" r="4.5" transform="translate(217 845)"/><circle class="a" cx="4.5" cy="4.5" r="4.5" transform="translate(-343 872)"/><circle class="a" cx="4.5" cy="4.5" r="4.5" transform="translate(-315 872)"/><circle class="a" cx="4.5" cy="4.5" r="4.5" transform="translate(-287 872)"/><circle class="a" cx="4.5" cy="4.5" r="4.5" transform="translate(-259 872)"/><circle class="a" cx="4.5" cy="4.5" r="4.5" transform="translate(-231 872)"/><circle class="a" cx="4.5" cy="4.5" r="4.5" transform="translate(-203 872)"/><circle class="a" cx="4.5" cy="4.5" r="4.5" transform="translate(-175 872)"/><circle class="a" cx="4.5" cy="4.5" r="4.5" transform="translate(-147 872)"/><circle class="a" cx="4.5" cy="4.5" r="4.5" transform="translate(-119 872)"/><circle class="a" cx="4.5" cy="4.5" r="4.5" transform="translate(-91 872)"/><circle class="a" cx="4.5" cy="4.5" r="4.5" transform="translate(-63 872)"/><circle class="a" cx="4.5" cy="4.5" r="4.5" transform="translate(-35 872)"/><circle class="a" cx="4.5" cy="4.5" r="4.5" transform="translate(-7 872)"/><circle class="a" cx="4.5" cy="4.5" r="4.5" transform="translate(21 872)"/><circle class="a" cx="4.5" cy="4.5" r="4.5" transform="translate(49 872)"/><circle class="a" cx="4.5" cy="4.5" r="4.5" transform="translate(77 872)"/><circle class="a" cx="4.5" cy="4.5" r="4.5" transform="translate(105 872)"/><circle class="a" cx="4.5" cy="4.5" r="4.5" transform="translate(133 872)"/><circle class="a" cx="4.5" cy="4.5" r="4.5" transform="translate(161 872)"/><circle class="a" cx="4.5" cy="4.5" r="4.5" transform="translate(189 872)"/><circle class="a" cx="4.5" cy="4.5" r="4.5" transform="translate(217 872)"/><circle class="a" cx="4.5" cy="4.5" r="4.5" transform="translate(-343 899)"/><circle class="a" cx="4.5" cy="4.5" r="4.5" transform="translate(-315 899)"/><circle class="a" cx="4.5" cy="4.5" r="4.5" transform="translate(-287 899)"/><circle class="a" cx="4.5" cy="4.5" r="4.5" transform="translate(-259 899)"/><circle class="a" cx="4.5" cy="4.5" r="4.5" transform="translate(-231 899)"/><circle class="a" cx="4.5" cy="4.5" r="4.5" transform="translate(-203 899)"/><circle class="a" cx="4.5" cy="4.5" r="4.5" transform="translate(-175 899)"/><circle class="a" cx="4.5" cy="4.5" r="4.5" transform="translate(-147 899)"/><circle class="a" cx="4.5" cy="4.5" r="4.5" transform="translate(-119 899)"/><circle class="a" cx="4.5" cy="4.5" r="4.5" transform="translate(-91 899)"/><circle class="a" cx="4.5" cy="4.5" r="4.5" transform="translate(-63 899)"/><circle class="a" cx="4.5" cy="4.5" r="4.5" transform="translate(-35 899)"/><circle class="a" cx="4.5" cy="4.5" r="4.5" transform="translate(-7 899)"/><circle class="a" cx="4.5" cy="4.5" r="4.5" transform="translate(21 899)"/><circle class="a" cx="4.5" cy="4.5" r="4.5" transform="translate(49 899)"/><circle class="a" cx="4.5" cy="4.5" r="4.5" transform="translate(77 899)"/><circle class="a" cx="4.5" cy="4.5" r="4.5" transform="translate(105 899)"/><circle class="a" cx="4.5" cy="4.5" r="4.5" transform="translate(133 899)"/><circle class="a" cx="4.5" cy="4.5" r="4.5" transform="translate(161 899)"/><circle class="a" cx="4.5" cy="4.5" r="4.5" transform="translate(189 899)"/><circle class="a" cx="4.5" cy="4.5" r="4.5" transform="translate(217 899)"/><circle class="a" cx="4.5" cy="4.5" r="4.5" transform="translate(-343 926)"/><circle class="a" cx="4.5" cy="4.5" r="4.5" transform="translate(-315 926)"/><circle class="a" cx="4.5" cy="4.5" r="4.5" transform="translate(-287 926)"/><circle class="a" cx="4.5" cy="4.5" r="4.5" transform="translate(-259 926)"/><circle class="a" cx="4.5" cy="4.5" r="4.5" transform="translate(-231 926)"/><circle class="a" cx="4.5" cy="4.5" r="4.5" transform="translate(-203 926)"/><circle class="a" cx="4.5" cy="4.5" r="4.5" transform="translate(-175 926)"/><circle class="a" cx="4.5" cy="4.5" r="4.5" transform="translate(-147 926)"/><circle class="a" cx="4.5" cy="4.5" r="4.5" transform="translate(-119 926)"/><circle class="a" cx="4.5" cy="4.5" r="4.5" transform="translate(-91 926)"/><circle class="a" cx="4.5" cy="4.5" r="4.5" transform="translate(-63 926)"/><circle class="a" cx="4.5" cy="4.5" r="4.5" transform="translate(-35 926)"/><circle class="a" cx="4.5" cy="4.5" r="4.5" transform="translate(-7 926)"/><circle class="a" cx="4.5" cy="4.5" r="4.5" transform="translate(21 926)"/><circle class="a" cx="4.5" cy="4.5" r="4.5" transform="translate(49 926)"/><circle class="a" cx="4.5" cy="4.5" r="4.5" transform="translate(77 926)"/><circle class="a" cx="4.5" cy="4.5" r="4.5" transform="translate(105 926)"/><circle class="a" cx="4.5" cy="4.5" r="4.5" transform="translate(133 926)"/><circle class="a" cx="4.5" cy="4.5" r="4.5" transform="translate(161 926)"/><circle class="a" cx="4.5" cy="4.5" r="4.5" transform="translate(189 926)"/><circle class="a" cx="4.5" cy="4.5" r="4.5" transform="translate(217 926)"/></g></svg>