<svg width="34" height="34" viewBox="0 0 34 34" fill="none" xmlns="http://www.w3.org/2000/svg">
<path opacity="0.5" d="M31.1 23.838C30.6177 23.5731 30.0121 23.7493 29.7473 24.2314C29.4824 24.7136 29.6586 25.3192 30.1407 25.5841C31.3273 26.2359 32.0078 26.9585 32.0078 27.5667C32.0078 28.3105 30.9539 29.4633 27.996 30.4682C25.0738 31.4611 21.1687 32.0079 17 32.0079C12.8313 32.0079 8.9262 31.4611 6.00399 30.4682C3.04605 29.4634 1.99219 28.3105 1.99219 27.5667C1.99219 26.9585 2.67272 26.2359 3.85927 25.584C4.34144 25.3192 4.51755 24.7135 4.25266 24.2314C3.98776 23.7493 3.38234 23.5731 2.90003 23.838C1.57708 24.5648 0 25.8017 0 27.5667C0 28.9196 0.930484 30.8486 5.3631 32.3546C8.48632 33.4157 12.619 34.0001 17 34.0001C21.381 34.0001 25.5137 33.4157 28.6369 32.3546C33.0695 30.8486 34 28.9196 34 27.5667C34 25.8017 32.4229 24.5648 31.1 23.838Z" fill="#C9021D"/>
<path opacity="0.5" d="M9.47963 29.0282C11.5017 29.5994 14.1725 29.9141 17 29.9141C19.8275 29.9141 22.4983 29.5995 24.5204 29.0282C26.9942 28.3294 28.2486 27.3178 28.2486 26.0217C28.2486 24.7255 26.9942 23.714 24.5204 23.0152C23.9712 22.8601 23.3739 22.724 22.739 22.6079C22.3941 23.2037 22.0328 23.817 21.655 24.4479C22.3579 24.5533 23.0177 24.6826 23.617 24.8353C25.4376 25.299 26.1027 25.821 26.2394 26.0217C26.1026 26.2225 25.4376 26.7445 23.6171 27.2081C21.8939 27.647 19.6768 27.8974 17.3418 27.9197C17.2287 27.9281 17.1148 27.9328 17 27.9328C16.8852 27.9328 16.7713 27.9281 16.6581 27.9197C14.3231 27.8974 12.1061 27.6471 10.3829 27.2081C8.56229 26.7445 7.89723 26.2224 7.7605 26.0217C7.89723 25.821 8.56236 25.299 10.383 24.8353C10.9822 24.6827 11.6421 24.5533 12.345 24.4479C11.9672 23.817 11.6059 23.2036 11.261 22.6079C10.6261 22.7241 10.0287 22.8601 9.47963 23.0152C7.0058 23.714 5.75145 24.7255 5.75145 26.0217C5.75145 27.3178 7.0058 28.3293 9.47963 29.0282Z" fill="#C9021D"/>
<path d="M17 25.9405C17.8867 25.9405 18.6922 25.4887 19.1547 24.7319C22.396 19.4289 26.2597 12.4399 26.2597 9.25962C26.2597 4.15384 22.1058 0 17 0C11.8942 0 7.74031 4.15384 7.74031 9.25962C7.74031 12.4399 11.604 19.4289 14.8452 24.7319C15.3078 25.4887 16.1133 25.9405 17 25.9405ZM13.2781 8.62385C13.2781 6.5717 14.9478 4.90211 17 4.90211C19.0522 4.90211 20.7219 6.5717 20.7219 8.62385C20.7219 10.6761 19.0522 12.3457 17 12.3457C14.9478 12.3457 13.2781 10.6761 13.2781 8.62385Z" fill="#C9021D"/>
</svg>
