<svg width="14" height="14" viewBox="0 0 14 14" fill="none" xmlns="http://www.w3.org/2000/svg">
<path d="M7 0.673767C5.70206 0.673767 4.43327 1.05865 3.35407 1.77975C2.27488 2.50084 1.43374 3.52577 0.937044 4.72491C0.440343 5.92405 0.310384 7.24355 0.5636 8.51655C0.816815 9.78955 1.44183 10.9589 2.35961 11.8767C3.2774 12.7944 4.44672 13.4195 5.71972 13.6727C6.99272 13.9259 8.31222 13.7959 9.51136 13.2992C10.7105 12.8025 11.7354 11.9614 12.4565 10.8822C13.1776 9.803 13.5625 8.53421 13.5625 7.23627C13.5604 5.49642 12.8683 3.82844 11.6381 2.59818C10.4078 1.36792 8.73985 0.675851 7 0.673767V0.673767ZM6.5625 3.73627C6.5625 3.62023 6.6086 3.50895 6.69064 3.42691C6.77269 3.34486 6.88397 3.29877 7 3.29877C7.11603 3.29877 7.22731 3.34486 7.30936 3.42691C7.39141 3.50895 7.4375 3.62023 7.4375 3.73627V6.79877C7.4375 6.9148 7.39141 7.02608 7.30936 7.10813C7.22731 7.19017 7.11603 7.23627 7 7.23627C6.88397 7.23627 6.77269 7.19017 6.69064 7.10813C6.6086 7.02608 6.5625 6.9148 6.5625 6.79877V3.73627ZM7 11.1738C5.95621 11.1721 4.95563 10.7568 4.21756 10.0187C3.47949 9.28064 3.06412 8.28006 3.0625 7.23627C3.06059 6.64582 3.19268 6.06264 3.44882 5.53065C3.70497 4.99866 4.07849 4.53173 4.54125 4.16502C4.58531 4.12343 4.63752 4.09145 4.69458 4.0711C4.75164 4.05074 4.81231 4.04246 4.87274 4.04678C4.93317 4.0511 4.99204 4.06792 5.04563 4.09617C5.09922 4.12443 5.14635 4.16351 5.18405 4.21094C5.22175 4.25836 5.24918 4.3131 5.26462 4.37168C5.28006 4.43026 5.28316 4.49141 5.27373 4.55126C5.2643 4.6111 5.24255 4.66833 5.20985 4.71933C5.17714 4.77033 5.13421 4.81398 5.08375 4.84752C4.589 5.24438 4.22967 5.78507 4.05539 6.39491C3.88111 7.00475 3.90047 7.65366 4.1108 8.25202C4.32114 8.85039 4.71206 9.36869 5.2296 9.73534C5.74714 10.102 6.36575 10.2989 7 10.2989C7.63426 10.2989 8.25287 10.102 8.7704 9.73534C9.28794 9.36869 9.67887 8.85039 9.8892 8.25202C10.0995 7.65366 10.1189 7.00475 9.94462 6.39491C9.77033 5.78507 9.411 5.24438 8.91625 4.84752C8.83655 4.77228 8.78798 4.66987 8.78017 4.56054C8.77236 4.45121 8.80588 4.34294 8.87408 4.25713C8.94228 4.17133 9.0402 4.11426 9.14847 4.0972C9.25674 4.08014 9.36747 4.10434 9.45875 4.16502C9.92152 4.53173 10.295 4.99866 10.5512 5.53065C10.8073 6.06264 10.9394 6.64582 10.9375 7.23627C10.9359 8.28006 10.5205 9.28064 9.78245 10.0187C9.04437 10.7568 8.04379 11.1721 7 11.1738V11.1738Z" fill="#6F1B28"/>
</svg>
