<svg width="11" height="11" viewBox="0 0 11 11" fill="none" xmlns="http://www.w3.org/2000/svg">
<path d="M2.65829 5.6283H2.18229C2.12124 5.62837 2.06153 5.64629 2.01054 5.67987C1.95954 5.71345 1.91948 5.76123 1.89529 5.81729L0.576294 8.8873L3.70729 7.28729C3.32122 6.75817 2.97078 6.20395 2.65829 5.6283Z" fill="white"/>
<path d="M8.71622 5.81729C8.69203 5.76123 8.65196 5.71345 8.60097 5.67987C8.54997 5.64629 8.49027 5.62837 8.42921 5.6283H7.95322C7.40368 6.62531 6.75363 7.56351 6.01321 8.42828C5.92508 8.52912 5.8164 8.60994 5.69446 8.66531C5.57252 8.72069 5.44014 8.74933 5.30621 8.74933C5.17229 8.74933 5.03991 8.72069 4.91797 8.66531C4.79603 8.60994 4.68735 8.52912 4.59921 8.42828C4.56121 8.38428 4.36222 8.15329 4.08722 7.79929L3.52222 8.08728L5.65721 10.2183L9.70322 8.11829L8.71622 5.81729Z" fill="white"/>
<path d="M0.195269 9.78534L0.0252685 10.1853C0.00490168 10.2328 -0.00335672 10.2846 0.00123469 10.3361C0.00582609 10.3875 0.0231236 10.437 0.0515744 10.4802C0.0800253 10.5233 0.118739 10.5587 0.16424 10.5831C0.209742 10.6076 0.260606 10.6204 0.312269 10.6203H4.89527C4.9534 10.582 5.01461 10.5485 5.07827 10.5203L2.93727 8.37732L0.195269 9.78534Z" fill="white"/>
<path d="M10.5903 10.1813L9.95029 8.69128L6.23828 10.6153H10.3033C10.3548 10.6152 10.4055 10.6024 10.4509 10.578C10.4963 10.5536 10.5349 10.5184 10.5634 10.4754C10.5918 10.4324 10.6091 10.383 10.6138 10.3317C10.6185 10.2804 10.6104 10.2287 10.5903 10.1813Z" fill="white"/>
<path d="M5.61826 2.80334C5.61826 2.74163 5.59996 2.6813 5.56567 2.63C5.53139 2.57869 5.48267 2.5387 5.42566 2.51508C5.36865 2.49147 5.30591 2.48529 5.24539 2.49733C5.18487 2.50937 5.12928 2.53908 5.08565 2.58272C5.04201 2.62635 5.0123 2.68195 5.00026 2.74247C4.98822 2.80299 4.99439 2.86572 5.01801 2.92273C5.04162 2.97974 5.08161 3.02847 5.13292 3.06275C5.18423 3.09703 5.24455 3.11533 5.30626 3.11533C5.38901 3.11533 5.46838 3.08247 5.52689 3.02395C5.5854 2.96544 5.61826 2.88608 5.61826 2.80334Z" fill="white"/>
<path d="M5.54222 7.99532C5.64722 7.87432 8.11822 5.01732 8.11822 3.05232C8.15019 2.66368 8.10125 2.27263 7.97447 1.90386C7.84769 1.53509 7.64583 1.19661 7.38164 0.909785C7.11745 0.622963 6.79666 0.39403 6.43953 0.237439C6.0824 0.0808476 5.69667 0 5.30672 0C4.91676 0 4.53105 0.0808476 4.17391 0.237439C3.81678 0.39403 3.49599 0.622963 3.2318 0.909785C2.96761 1.19661 2.76575 1.53509 2.63897 1.90386C2.51219 2.27263 2.46324 2.66368 2.49522 3.05232C2.49522 5.01632 4.96522 7.87432 5.07122 7.99532C5.1006 8.02888 5.13681 8.05577 5.17742 8.07419C5.21804 8.09261 5.26212 8.10214 5.30672 8.10214C5.35132 8.10214 5.39541 8.09261 5.43602 8.07419C5.47664 8.05577 5.51285 8.02888 5.54222 7.99532ZM4.36922 2.80332C4.36882 2.61791 4.42344 2.43656 4.52616 2.28221C4.62888 2.12785 4.77508 2.00745 4.94626 1.93622C5.11744 1.86499 5.3059 1.84615 5.48779 1.88208C5.66969 1.91801 5.83683 2.00709 5.96807 2.13805C6.09931 2.26902 6.18875 2.43597 6.22507 2.61778C6.26139 2.7996 6.24294 2.9881 6.17208 3.15943C6.10122 3.33076 5.98113 3.47722 5.827 3.58027C5.67287 3.68331 5.49163 3.73832 5.30622 3.73832C5.05789 3.73832 4.81971 3.63974 4.64401 3.46423C4.46832 3.28873 4.36948 3.05065 4.36922 2.80232V2.80332Z" fill="white"/>
</svg>
