<svg width="12" height="15" viewBox="0 0 12 15" fill="none" xmlns="http://www.w3.org/2000/svg">
<path d="M5.7518 6.98013C6.67828 6.98013 7.48055 6.64784 8.13605 5.99223C8.79155 5.33673 9.12384 4.53468 9.12384 3.60809C9.12384 2.68182 8.79155 1.87967 8.13594 1.22395C7.48033 0.568558 6.67818 0.236267 5.7518 0.236267C4.82521 0.236267 4.02316 0.568558 3.36766 1.22406C2.71216 1.87956 2.37976 2.68172 2.37976 3.60809C2.37976 4.53468 2.71216 5.33684 3.36777 5.99234C4.02338 6.64774 4.82553 6.98013 5.7518 6.98013V6.98013Z" fill="#6F1B28"/>
<path d="M11.6519 11.0015C11.633 10.7287 11.5948 10.4312 11.5385 10.1169C11.4817 9.80033 11.4085 9.50104 11.3209 9.2275C11.2304 8.94477 11.1074 8.66557 10.9553 8.398C10.7974 8.1203 10.612 7.87848 10.4039 7.67949C10.1864 7.47131 9.91997 7.30394 9.61193 7.18185C9.30496 7.06041 8.96476 6.99889 8.60086 6.99889C8.45794 6.99889 8.31973 7.05753 8.05281 7.23131C7.88853 7.33844 7.69638 7.46234 7.4819 7.59938C7.29851 7.71623 7.05007 7.82571 6.7432 7.92483C6.44381 8.02171 6.13982 8.07084 5.83979 8.07084C5.53976 8.07084 5.23588 8.02171 4.93617 7.92483C4.62962 7.82582 4.38118 7.71634 4.198 7.59948C3.98555 7.46373 3.79329 7.33983 3.62656 7.2312C3.35996 7.05742 3.22164 6.99878 3.07872 6.99878C2.71471 6.99878 2.37462 7.06041 2.06776 7.18196C1.75993 7.30383 1.49343 7.4712 1.27564 7.67959C1.06768 7.87869 0.882153 8.1204 0.7245 8.398C0.572507 8.66557 0.449461 8.94466 0.358885 9.22761C0.271407 9.50115 0.198241 9.80033 0.141418 10.1169C0.0851284 10.4307 0.0468901 10.7284 0.0279845 11.0018C0.00939938 11.2697 0 11.5478 0 11.8286C0 12.5594 0.232314 13.151 0.690427 13.5873C1.14288 14.0179 1.74156 14.2363 2.46958 14.2363H9.21064C9.93867 14.2363 10.5371 14.018 10.9897 13.5873C11.4479 13.1513 11.6802 12.5596 11.6802 11.8285C11.6801 11.5464 11.6706 11.2681 11.6519 11.0015V11.0015Z" fill="#6F1B28"/>
</svg>
