<svg width="27" height="27" viewBox="0 0 27 27" fill="none" xmlns="http://www.w3.org/2000/svg">
<rect width="27" height="27" rx="2" fill="#6D1024" fill-opacity="0.05"/>
<path d="M13.5158 6.30376C10.8954 6.30376 8.76584 8.43334 8.76584 11.0538V13.3417C8.76584 13.8246 8.56001 14.5608 8.31459 14.9725L7.40418 16.4846C6.84209 17.4188 7.23001 18.4558 8.25918 18.8042C11.6713 19.9442 15.3525 19.9442 18.7646 18.8042C19.7225 18.4875 20.1421 17.3554 19.6196 16.4846L18.7092 14.9725C18.4717 14.5608 18.2658 13.8246 18.2658 13.3417V11.0538C18.2658 8.44126 16.1283 6.30376 13.5158 6.30376Z" stroke="#6D1024" stroke-miterlimit="10" stroke-linecap="round"/>
<path d="M14.9804 6.53333C14.735 6.46208 14.4817 6.40666 14.2204 6.37499C13.4604 6.27999 12.7321 6.33541 12.0512 6.53333C12.2808 5.94749 12.8508 5.53583 13.5158 5.53583C14.1808 5.53583 14.7508 5.94749 14.9804 6.53333Z" stroke="#6D1024" stroke-miterlimit="10" stroke-linecap="round" stroke-linejoin="round"/>
<path d="M15.8908 19.0892C15.8908 20.3954 14.8221 21.4642 13.5158 21.4642C12.8667 21.4642 12.265 21.195 11.8375 20.7675C11.41 20.34 11.1408 19.7383 11.1408 19.0892" stroke="#6D1024" stroke-miterlimit="10"/>
</svg>
