<svg width="14" height="15" viewBox="0 0 14 15" fill="none" xmlns="http://www.w3.org/2000/svg">
<g clip-path="url(#clip0_284_1399)">
<path d="M13.2317 5.7161L12.1351 5.57668C12.0447 5.29843 11.9332 5.0301 11.8032 4.77518L12.4804 3.9031C12.7546 3.55018 12.7225 3.05202 12.4092 2.74868L11.4905 1.82993C11.1842 1.51377 10.6861 1.48227 10.3326 1.75585L9.46167 2.4331C9.20675 2.30302 8.93842 2.1916 8.65958 2.10118L8.52017 1.00627C8.46767 0.567017 8.09492 0.236267 7.65333 0.236267H6.34667C5.90508 0.236267 5.53233 0.567017 5.47983 1.00452L5.34042 2.10118C5.06158 2.1916 4.79325 2.30243 4.53833 2.4331L3.66683 1.75585C3.3145 1.48227 2.81633 1.51377 2.51242 1.82702L1.59367 2.74518C1.2775 3.05202 1.24542 3.55018 1.51958 3.90368L2.19683 4.77518C2.06617 5.0301 1.95533 5.29843 1.86492 5.57668L0.77 5.7161C0.33075 5.7686 0 6.14135 0 6.58293V7.8896C0 8.33118 0.33075 8.70393 0.76825 8.75643L1.86492 8.89585C1.95533 9.1741 2.06675 9.44243 2.19683 9.69735L1.51958 10.5694C1.24542 10.9224 1.2775 11.4205 1.59075 11.7239L2.5095 12.6426C2.81633 12.9582 3.31392 12.9897 3.66742 12.7161L4.53892 12.0388C4.79383 12.1695 5.06217 12.2809 5.34042 12.3708L5.47983 13.4651C5.53233 13.9055 5.90508 14.2363 6.34667 14.2363H7.65333C8.09492 14.2363 8.46767 13.9055 8.52017 13.468L8.65958 12.3713C8.93783 12.2809 9.20617 12.1695 9.46108 12.0394L10.3332 12.7167C10.6861 12.9909 11.1843 12.9588 11.4876 12.6455L12.4063 11.7268C12.7225 11.4199 12.7546 10.9223 12.4804 10.5688L11.8032 9.69735C11.9338 9.44243 12.0452 9.1741 12.1351 8.89585L13.2294 8.75643C13.6687 8.70393 13.9994 8.33118 13.9994 7.8896V6.58293C14 6.14135 13.6692 5.7686 13.2317 5.7161V5.7161ZM7 10.1529C5.39175 10.1529 4.08333 8.84452 4.08333 7.23627C4.08333 5.62802 5.39175 4.3196 7 4.3196C8.60825 4.3196 9.91667 5.62802 9.91667 7.23627C9.91667 8.84452 8.60825 10.1529 7 10.1529Z" fill="#6F1B28"/>
</g>
<defs>
<clipPath id="clip0_284_1399">
<rect width="14" height="14" fill="white" transform="translate(0 0.236267)"/>
</clipPath>
</defs>
</svg>
